%TF.GenerationSoftware,KiCad,Pcbnew,9.0.3*%
%TF.CreationDate,2025-07-12T16:14:16+09:00*%
%TF.ProjectId,R1.1,52312e31-2e6b-4696-9361-645f70636258,1.1*%
%TF.SameCoordinates,PX747b114PY92635dc*%
%TF.FileFunction,Legend,Top*%
%TF.FilePolarity,Positive*%
%FSLAX46Y46*%
G04 Gerber Fmt 4.6, Leading zero omitted, Abs format (unit mm)*
G04 Created by KiCad (PCBNEW 9.0.3) date 2025-07-12 16:14:16*
%MOMM*%
%LPD*%
G01*
G04 APERTURE LIST*
%ADD10C,0.150000*%
%ADD11C,0.100000*%
%ADD12C,0.140000*%
%ADD13C,0.160000*%
%ADD14C,0.200000*%
%ADD15C,0.125000*%
%ADD16C,0.120000*%
G04 APERTURE END LIST*
D10*
X18574295Y6289161D02*
X17774295Y6289161D01*
X17774295Y6289161D02*
X18345723Y6555827D01*
X18345723Y6555827D02*
X17774295Y6822494D01*
X17774295Y6822494D02*
X18574295Y6822494D01*
X17774295Y7355828D02*
X17774295Y7508209D01*
X17774295Y7508209D02*
X17812390Y7584399D01*
X17812390Y7584399D02*
X17888580Y7660590D01*
X17888580Y7660590D02*
X18040961Y7698685D01*
X18040961Y7698685D02*
X18307628Y7698685D01*
X18307628Y7698685D02*
X18460009Y7660590D01*
X18460009Y7660590D02*
X18536200Y7584399D01*
X18536200Y7584399D02*
X18574295Y7508209D01*
X18574295Y7508209D02*
X18574295Y7355828D01*
X18574295Y7355828D02*
X18536200Y7279637D01*
X18536200Y7279637D02*
X18460009Y7203447D01*
X18460009Y7203447D02*
X18307628Y7165351D01*
X18307628Y7165351D02*
X18040961Y7165351D01*
X18040961Y7165351D02*
X17888580Y7203447D01*
X17888580Y7203447D02*
X17812390Y7279637D01*
X17812390Y7279637D02*
X17774295Y7355828D01*
X18536200Y8003446D02*
X18574295Y8117732D01*
X18574295Y8117732D02*
X18574295Y8308208D01*
X18574295Y8308208D02*
X18536200Y8384399D01*
X18536200Y8384399D02*
X18498104Y8422494D01*
X18498104Y8422494D02*
X18421914Y8460589D01*
X18421914Y8460589D02*
X18345723Y8460589D01*
X18345723Y8460589D02*
X18269533Y8422494D01*
X18269533Y8422494D02*
X18231438Y8384399D01*
X18231438Y8384399D02*
X18193342Y8308208D01*
X18193342Y8308208D02*
X18155247Y8155827D01*
X18155247Y8155827D02*
X18117152Y8079637D01*
X18117152Y8079637D02*
X18079057Y8041542D01*
X18079057Y8041542D02*
X18002866Y8003446D01*
X18002866Y8003446D02*
X17926676Y8003446D01*
X17926676Y8003446D02*
X17850485Y8041542D01*
X17850485Y8041542D02*
X17812390Y8079637D01*
X17812390Y8079637D02*
X17774295Y8155827D01*
X17774295Y8155827D02*
X17774295Y8346304D01*
X17774295Y8346304D02*
X17812390Y8460589D01*
X18574295Y8803447D02*
X17774295Y8803447D01*
X9992390Y7068208D02*
X9954295Y6992018D01*
X9954295Y6992018D02*
X9954295Y6877732D01*
X9954295Y6877732D02*
X9992390Y6763446D01*
X9992390Y6763446D02*
X10068580Y6687256D01*
X10068580Y6687256D02*
X10144771Y6649161D01*
X10144771Y6649161D02*
X10297152Y6611065D01*
X10297152Y6611065D02*
X10411438Y6611065D01*
X10411438Y6611065D02*
X10563819Y6649161D01*
X10563819Y6649161D02*
X10640009Y6687256D01*
X10640009Y6687256D02*
X10716200Y6763446D01*
X10716200Y6763446D02*
X10754295Y6877732D01*
X10754295Y6877732D02*
X10754295Y6953923D01*
X10754295Y6953923D02*
X10716200Y7068208D01*
X10716200Y7068208D02*
X10678104Y7106304D01*
X10678104Y7106304D02*
X10411438Y7106304D01*
X10411438Y7106304D02*
X10411438Y6953923D01*
X10754295Y7449161D02*
X9954295Y7449161D01*
X9954295Y7449161D02*
X10754295Y7906304D01*
X10754295Y7906304D02*
X9954295Y7906304D01*
X10754295Y8287256D02*
X9954295Y8287256D01*
X9954295Y8287256D02*
X9954295Y8477732D01*
X9954295Y8477732D02*
X9992390Y8592018D01*
X9992390Y8592018D02*
X10068580Y8668208D01*
X10068580Y8668208D02*
X10144771Y8706303D01*
X10144771Y8706303D02*
X10297152Y8744399D01*
X10297152Y8744399D02*
X10411438Y8744399D01*
X10411438Y8744399D02*
X10563819Y8706303D01*
X10563819Y8706303D02*
X10640009Y8668208D01*
X10640009Y8668208D02*
X10716200Y8592018D01*
X10716200Y8592018D02*
X10754295Y8477732D01*
X10754295Y8477732D02*
X10754295Y8287256D01*
X23258104Y7866304D02*
X23296200Y7828208D01*
X23296200Y7828208D02*
X23334295Y7713923D01*
X23334295Y7713923D02*
X23334295Y7637732D01*
X23334295Y7637732D02*
X23296200Y7523446D01*
X23296200Y7523446D02*
X23220009Y7447256D01*
X23220009Y7447256D02*
X23143819Y7409161D01*
X23143819Y7409161D02*
X22991438Y7371065D01*
X22991438Y7371065D02*
X22877152Y7371065D01*
X22877152Y7371065D02*
X22724771Y7409161D01*
X22724771Y7409161D02*
X22648580Y7447256D01*
X22648580Y7447256D02*
X22572390Y7523446D01*
X22572390Y7523446D02*
X22534295Y7637732D01*
X22534295Y7637732D02*
X22534295Y7713923D01*
X22534295Y7713923D02*
X22572390Y7828208D01*
X22572390Y7828208D02*
X22610485Y7866304D01*
X23296200Y8171065D02*
X23334295Y8285351D01*
X23334295Y8285351D02*
X23334295Y8475827D01*
X23334295Y8475827D02*
X23296200Y8552018D01*
X23296200Y8552018D02*
X23258104Y8590113D01*
X23258104Y8590113D02*
X23181914Y8628208D01*
X23181914Y8628208D02*
X23105723Y8628208D01*
X23105723Y8628208D02*
X23029533Y8590113D01*
X23029533Y8590113D02*
X22991438Y8552018D01*
X22991438Y8552018D02*
X22953342Y8475827D01*
X22953342Y8475827D02*
X22915247Y8323446D01*
X22915247Y8323446D02*
X22877152Y8247256D01*
X22877152Y8247256D02*
X22839057Y8209161D01*
X22839057Y8209161D02*
X22762866Y8171065D01*
X22762866Y8171065D02*
X22686676Y8171065D01*
X22686676Y8171065D02*
X22610485Y8209161D01*
X22610485Y8209161D02*
X22572390Y8247256D01*
X22572390Y8247256D02*
X22534295Y8323446D01*
X22534295Y8323446D02*
X22534295Y8513923D01*
X22534295Y8513923D02*
X22572390Y8628208D01*
X20736200Y6611065D02*
X20774295Y6725351D01*
X20774295Y6725351D02*
X20774295Y6915827D01*
X20774295Y6915827D02*
X20736200Y6992018D01*
X20736200Y6992018D02*
X20698104Y7030113D01*
X20698104Y7030113D02*
X20621914Y7068208D01*
X20621914Y7068208D02*
X20545723Y7068208D01*
X20545723Y7068208D02*
X20469533Y7030113D01*
X20469533Y7030113D02*
X20431438Y6992018D01*
X20431438Y6992018D02*
X20393342Y6915827D01*
X20393342Y6915827D02*
X20355247Y6763446D01*
X20355247Y6763446D02*
X20317152Y6687256D01*
X20317152Y6687256D02*
X20279057Y6649161D01*
X20279057Y6649161D02*
X20202866Y6611065D01*
X20202866Y6611065D02*
X20126676Y6611065D01*
X20126676Y6611065D02*
X20050485Y6649161D01*
X20050485Y6649161D02*
X20012390Y6687256D01*
X20012390Y6687256D02*
X19974295Y6763446D01*
X19974295Y6763446D02*
X19974295Y6953923D01*
X19974295Y6953923D02*
X20012390Y7068208D01*
X20698104Y7868209D02*
X20736200Y7830113D01*
X20736200Y7830113D02*
X20774295Y7715828D01*
X20774295Y7715828D02*
X20774295Y7639637D01*
X20774295Y7639637D02*
X20736200Y7525351D01*
X20736200Y7525351D02*
X20660009Y7449161D01*
X20660009Y7449161D02*
X20583819Y7411066D01*
X20583819Y7411066D02*
X20431438Y7372970D01*
X20431438Y7372970D02*
X20317152Y7372970D01*
X20317152Y7372970D02*
X20164771Y7411066D01*
X20164771Y7411066D02*
X20088580Y7449161D01*
X20088580Y7449161D02*
X20012390Y7525351D01*
X20012390Y7525351D02*
X19974295Y7639637D01*
X19974295Y7639637D02*
X19974295Y7715828D01*
X19974295Y7715828D02*
X20012390Y7830113D01*
X20012390Y7830113D02*
X20050485Y7868209D01*
X20774295Y8211066D02*
X19974295Y8211066D01*
X20774295Y8668209D02*
X20317152Y8325351D01*
X19974295Y8668209D02*
X20431438Y8211066D01*
X15734295Y6269161D02*
X14934295Y6269161D01*
X14934295Y6269161D02*
X15505723Y6535827D01*
X15505723Y6535827D02*
X14934295Y6802494D01*
X14934295Y6802494D02*
X15734295Y6802494D01*
X15734295Y7183447D02*
X14934295Y7183447D01*
X15696200Y7526303D02*
X15734295Y7640589D01*
X15734295Y7640589D02*
X15734295Y7831065D01*
X15734295Y7831065D02*
X15696200Y7907256D01*
X15696200Y7907256D02*
X15658104Y7945351D01*
X15658104Y7945351D02*
X15581914Y7983446D01*
X15581914Y7983446D02*
X15505723Y7983446D01*
X15505723Y7983446D02*
X15429533Y7945351D01*
X15429533Y7945351D02*
X15391438Y7907256D01*
X15391438Y7907256D02*
X15353342Y7831065D01*
X15353342Y7831065D02*
X15315247Y7678684D01*
X15315247Y7678684D02*
X15277152Y7602494D01*
X15277152Y7602494D02*
X15239057Y7564399D01*
X15239057Y7564399D02*
X15162866Y7526303D01*
X15162866Y7526303D02*
X15086676Y7526303D01*
X15086676Y7526303D02*
X15010485Y7564399D01*
X15010485Y7564399D02*
X14972390Y7602494D01*
X14972390Y7602494D02*
X14934295Y7678684D01*
X14934295Y7678684D02*
X14934295Y7869161D01*
X14934295Y7869161D02*
X14972390Y7983446D01*
X14934295Y8478685D02*
X14934295Y8631066D01*
X14934295Y8631066D02*
X14972390Y8707256D01*
X14972390Y8707256D02*
X15048580Y8783447D01*
X15048580Y8783447D02*
X15200961Y8821542D01*
X15200961Y8821542D02*
X15467628Y8821542D01*
X15467628Y8821542D02*
X15620009Y8783447D01*
X15620009Y8783447D02*
X15696200Y8707256D01*
X15696200Y8707256D02*
X15734295Y8631066D01*
X15734295Y8631066D02*
X15734295Y8478685D01*
X15734295Y8478685D02*
X15696200Y8402494D01*
X15696200Y8402494D02*
X15620009Y8326304D01*
X15620009Y8326304D02*
X15467628Y8288208D01*
X15467628Y8288208D02*
X15200961Y8288208D01*
X15200961Y8288208D02*
X15048580Y8326304D01*
X15048580Y8326304D02*
X14972390Y8402494D01*
X14972390Y8402494D02*
X14934295Y8478685D01*
X17069160Y12607800D02*
X17212017Y12560181D01*
X17212017Y12560181D02*
X17450112Y12560181D01*
X17450112Y12560181D02*
X17545350Y12607800D01*
X17545350Y12607800D02*
X17592969Y12655420D01*
X17592969Y12655420D02*
X17640588Y12750658D01*
X17640588Y12750658D02*
X17640588Y12845896D01*
X17640588Y12845896D02*
X17592969Y12941134D01*
X17592969Y12941134D02*
X17545350Y12988753D01*
X17545350Y12988753D02*
X17450112Y13036372D01*
X17450112Y13036372D02*
X17259636Y13083991D01*
X17259636Y13083991D02*
X17164398Y13131610D01*
X17164398Y13131610D02*
X17116779Y13179229D01*
X17116779Y13179229D02*
X17069160Y13274467D01*
X17069160Y13274467D02*
X17069160Y13369705D01*
X17069160Y13369705D02*
X17116779Y13464943D01*
X17116779Y13464943D02*
X17164398Y13512562D01*
X17164398Y13512562D02*
X17259636Y13560181D01*
X17259636Y13560181D02*
X17497731Y13560181D01*
X17497731Y13560181D02*
X17640588Y13512562D01*
X18069160Y12560181D02*
X18069160Y13560181D01*
X18069160Y13560181D02*
X18450112Y13560181D01*
X18450112Y13560181D02*
X18545350Y13512562D01*
X18545350Y13512562D02*
X18592969Y13464943D01*
X18592969Y13464943D02*
X18640588Y13369705D01*
X18640588Y13369705D02*
X18640588Y13226848D01*
X18640588Y13226848D02*
X18592969Y13131610D01*
X18592969Y13131610D02*
X18545350Y13083991D01*
X18545350Y13083991D02*
X18450112Y13036372D01*
X18450112Y13036372D02*
X18069160Y13036372D01*
X19069160Y12560181D02*
X19069160Y13560181D01*
X12444295Y6724875D02*
X13244295Y6991542D01*
X13244295Y6991542D02*
X12444295Y7258208D01*
X13168104Y7982018D02*
X13206200Y7943922D01*
X13206200Y7943922D02*
X13244295Y7829637D01*
X13244295Y7829637D02*
X13244295Y7753446D01*
X13244295Y7753446D02*
X13206200Y7639160D01*
X13206200Y7639160D02*
X13130009Y7562970D01*
X13130009Y7562970D02*
X13053819Y7524875D01*
X13053819Y7524875D02*
X12901438Y7486779D01*
X12901438Y7486779D02*
X12787152Y7486779D01*
X12787152Y7486779D02*
X12634771Y7524875D01*
X12634771Y7524875D02*
X12558580Y7562970D01*
X12558580Y7562970D02*
X12482390Y7639160D01*
X12482390Y7639160D02*
X12444295Y7753446D01*
X12444295Y7753446D02*
X12444295Y7829637D01*
X12444295Y7829637D02*
X12482390Y7943922D01*
X12482390Y7943922D02*
X12520485Y7982018D01*
X13168104Y8782018D02*
X13206200Y8743922D01*
X13206200Y8743922D02*
X13244295Y8629637D01*
X13244295Y8629637D02*
X13244295Y8553446D01*
X13244295Y8553446D02*
X13206200Y8439160D01*
X13206200Y8439160D02*
X13130009Y8362970D01*
X13130009Y8362970D02*
X13053819Y8324875D01*
X13053819Y8324875D02*
X12901438Y8286779D01*
X12901438Y8286779D02*
X12787152Y8286779D01*
X12787152Y8286779D02*
X12634771Y8324875D01*
X12634771Y8324875D02*
X12558580Y8362970D01*
X12558580Y8362970D02*
X12482390Y8439160D01*
X12482390Y8439160D02*
X12444295Y8553446D01*
X12444295Y8553446D02*
X12444295Y8629637D01*
X12444295Y8629637D02*
X12482390Y8743922D01*
X12482390Y8743922D02*
X12520485Y8782018D01*
D11*
X63882455Y57250867D02*
X63882455Y57950867D01*
X64282455Y57250867D02*
X63982455Y57650867D01*
X64282455Y57950867D02*
X63882455Y57550867D01*
D12*
X3608771Y6239614D02*
X3842105Y6239614D01*
X3942105Y5872947D02*
X3608771Y5872947D01*
X3608771Y5872947D02*
X3608771Y6572947D01*
X3608771Y6572947D02*
X3942105Y6572947D01*
X4175438Y6572947D02*
X4642104Y5872947D01*
X4642104Y6572947D02*
X4175438Y5872947D01*
X4808771Y6572947D02*
X5208771Y6572947D01*
X5008771Y5872947D02*
X5008771Y6572947D01*
X5975437Y5872947D02*
X5975437Y6572947D01*
X5975437Y6572947D02*
X6142104Y6572947D01*
X6142104Y6572947D02*
X6242104Y6539614D01*
X6242104Y6539614D02*
X6308771Y6472947D01*
X6308771Y6472947D02*
X6342104Y6406280D01*
X6342104Y6406280D02*
X6375437Y6272947D01*
X6375437Y6272947D02*
X6375437Y6172947D01*
X6375437Y6172947D02*
X6342104Y6039614D01*
X6342104Y6039614D02*
X6308771Y5972947D01*
X6308771Y5972947D02*
X6242104Y5906280D01*
X6242104Y5906280D02*
X6142104Y5872947D01*
X6142104Y5872947D02*
X5975437Y5872947D01*
X7075437Y5939614D02*
X7042104Y5906280D01*
X7042104Y5906280D02*
X6942104Y5872947D01*
X6942104Y5872947D02*
X6875437Y5872947D01*
X6875437Y5872947D02*
X6775437Y5906280D01*
X6775437Y5906280D02*
X6708771Y5972947D01*
X6708771Y5972947D02*
X6675437Y6039614D01*
X6675437Y6039614D02*
X6642104Y6172947D01*
X6642104Y6172947D02*
X6642104Y6272947D01*
X6642104Y6272947D02*
X6675437Y6406280D01*
X6675437Y6406280D02*
X6708771Y6472947D01*
X6708771Y6472947D02*
X6775437Y6539614D01*
X6775437Y6539614D02*
X6875437Y6572947D01*
X6875437Y6572947D02*
X6942104Y6572947D01*
X6942104Y6572947D02*
X7042104Y6539614D01*
X7042104Y6539614D02*
X7075437Y6506280D01*
D13*
X31287643Y2574797D02*
X31668596Y2574797D01*
X31211453Y2346225D02*
X31478120Y3146225D01*
X31478120Y3146225D02*
X31744786Y2346225D01*
X31973357Y2384320D02*
X32087643Y2346225D01*
X32087643Y2346225D02*
X32278119Y2346225D01*
X32278119Y2346225D02*
X32354310Y2384320D01*
X32354310Y2384320D02*
X32392405Y2422416D01*
X32392405Y2422416D02*
X32430500Y2498606D01*
X32430500Y2498606D02*
X32430500Y2574797D01*
X32430500Y2574797D02*
X32392405Y2650987D01*
X32392405Y2650987D02*
X32354310Y2689082D01*
X32354310Y2689082D02*
X32278119Y2727178D01*
X32278119Y2727178D02*
X32125738Y2765273D01*
X32125738Y2765273D02*
X32049548Y2803368D01*
X32049548Y2803368D02*
X32011453Y2841463D01*
X32011453Y2841463D02*
X31973357Y2917654D01*
X31973357Y2917654D02*
X31973357Y2993844D01*
X31973357Y2993844D02*
X32011453Y3070035D01*
X32011453Y3070035D02*
X32049548Y3108130D01*
X32049548Y3108130D02*
X32125738Y3146225D01*
X32125738Y3146225D02*
X32316215Y3146225D01*
X32316215Y3146225D02*
X32430500Y3108130D01*
X33116215Y3146225D02*
X32963834Y3146225D01*
X32963834Y3146225D02*
X32887643Y3108130D01*
X32887643Y3108130D02*
X32849548Y3070035D01*
X32849548Y3070035D02*
X32773358Y2955749D01*
X32773358Y2955749D02*
X32735262Y2803368D01*
X32735262Y2803368D02*
X32735262Y2498606D01*
X32735262Y2498606D02*
X32773358Y2422416D01*
X32773358Y2422416D02*
X32811453Y2384320D01*
X32811453Y2384320D02*
X32887643Y2346225D01*
X32887643Y2346225D02*
X33040024Y2346225D01*
X33040024Y2346225D02*
X33116215Y2384320D01*
X33116215Y2384320D02*
X33154310Y2422416D01*
X33154310Y2422416D02*
X33192405Y2498606D01*
X33192405Y2498606D02*
X33192405Y2689082D01*
X33192405Y2689082D02*
X33154310Y2765273D01*
X33154310Y2765273D02*
X33116215Y2803368D01*
X33116215Y2803368D02*
X33040024Y2841463D01*
X33040024Y2841463D02*
X32887643Y2841463D01*
X32887643Y2841463D02*
X32811453Y2803368D01*
X32811453Y2803368D02*
X32773358Y2765273D01*
X32773358Y2765273D02*
X32735262Y2689082D01*
X33992406Y2422416D02*
X33954310Y2384320D01*
X33954310Y2384320D02*
X33840025Y2346225D01*
X33840025Y2346225D02*
X33763834Y2346225D01*
X33763834Y2346225D02*
X33649548Y2384320D01*
X33649548Y2384320D02*
X33573358Y2460511D01*
X33573358Y2460511D02*
X33535263Y2536701D01*
X33535263Y2536701D02*
X33497167Y2689082D01*
X33497167Y2689082D02*
X33497167Y2803368D01*
X33497167Y2803368D02*
X33535263Y2955749D01*
X33535263Y2955749D02*
X33573358Y3031940D01*
X33573358Y3031940D02*
X33649548Y3108130D01*
X33649548Y3108130D02*
X33763834Y3146225D01*
X33763834Y3146225D02*
X33840025Y3146225D01*
X33840025Y3146225D02*
X33954310Y3108130D01*
X33954310Y3108130D02*
X33992406Y3070035D01*
X34678120Y2879559D02*
X34678120Y2346225D01*
X34487644Y3184320D02*
X34297167Y2612892D01*
X34297167Y2612892D02*
X34792406Y2612892D01*
X35249549Y3146225D02*
X35325739Y3146225D01*
X35325739Y3146225D02*
X35401930Y3108130D01*
X35401930Y3108130D02*
X35440025Y3070035D01*
X35440025Y3070035D02*
X35478120Y2993844D01*
X35478120Y2993844D02*
X35516215Y2841463D01*
X35516215Y2841463D02*
X35516215Y2650987D01*
X35516215Y2650987D02*
X35478120Y2498606D01*
X35478120Y2498606D02*
X35440025Y2422416D01*
X35440025Y2422416D02*
X35401930Y2384320D01*
X35401930Y2384320D02*
X35325739Y2346225D01*
X35325739Y2346225D02*
X35249549Y2346225D01*
X35249549Y2346225D02*
X35173358Y2384320D01*
X35173358Y2384320D02*
X35135263Y2422416D01*
X35135263Y2422416D02*
X35097168Y2498606D01*
X35097168Y2498606D02*
X35059072Y2650987D01*
X35059072Y2650987D02*
X35059072Y2841463D01*
X35059072Y2841463D02*
X35097168Y2993844D01*
X35097168Y2993844D02*
X35135263Y3070035D01*
X35135263Y3070035D02*
X35173358Y3108130D01*
X35173358Y3108130D02*
X35249549Y3146225D01*
X36011454Y3146225D02*
X36087644Y3146225D01*
X36087644Y3146225D02*
X36163835Y3108130D01*
X36163835Y3108130D02*
X36201930Y3070035D01*
X36201930Y3070035D02*
X36240025Y2993844D01*
X36240025Y2993844D02*
X36278120Y2841463D01*
X36278120Y2841463D02*
X36278120Y2650987D01*
X36278120Y2650987D02*
X36240025Y2498606D01*
X36240025Y2498606D02*
X36201930Y2422416D01*
X36201930Y2422416D02*
X36163835Y2384320D01*
X36163835Y2384320D02*
X36087644Y2346225D01*
X36087644Y2346225D02*
X36011454Y2346225D01*
X36011454Y2346225D02*
X35935263Y2384320D01*
X35935263Y2384320D02*
X35897168Y2422416D01*
X35897168Y2422416D02*
X35859073Y2498606D01*
X35859073Y2498606D02*
X35820977Y2650987D01*
X35820977Y2650987D02*
X35820977Y2841463D01*
X35820977Y2841463D02*
X35859073Y2993844D01*
X35859073Y2993844D02*
X35897168Y3070035D01*
X35897168Y3070035D02*
X35935263Y3108130D01*
X35935263Y3108130D02*
X36011454Y3146225D01*
X36735263Y2803368D02*
X36659073Y2841463D01*
X36659073Y2841463D02*
X36620978Y2879559D01*
X36620978Y2879559D02*
X36582882Y2955749D01*
X36582882Y2955749D02*
X36582882Y2993844D01*
X36582882Y2993844D02*
X36620978Y3070035D01*
X36620978Y3070035D02*
X36659073Y3108130D01*
X36659073Y3108130D02*
X36735263Y3146225D01*
X36735263Y3146225D02*
X36887644Y3146225D01*
X36887644Y3146225D02*
X36963835Y3108130D01*
X36963835Y3108130D02*
X37001930Y3070035D01*
X37001930Y3070035D02*
X37040025Y2993844D01*
X37040025Y2993844D02*
X37040025Y2955749D01*
X37040025Y2955749D02*
X37001930Y2879559D01*
X37001930Y2879559D02*
X36963835Y2841463D01*
X36963835Y2841463D02*
X36887644Y2803368D01*
X36887644Y2803368D02*
X36735263Y2803368D01*
X36735263Y2803368D02*
X36659073Y2765273D01*
X36659073Y2765273D02*
X36620978Y2727178D01*
X36620978Y2727178D02*
X36582882Y2650987D01*
X36582882Y2650987D02*
X36582882Y2498606D01*
X36582882Y2498606D02*
X36620978Y2422416D01*
X36620978Y2422416D02*
X36659073Y2384320D01*
X36659073Y2384320D02*
X36735263Y2346225D01*
X36735263Y2346225D02*
X36887644Y2346225D01*
X36887644Y2346225D02*
X36963835Y2384320D01*
X36963835Y2384320D02*
X37001930Y2422416D01*
X37001930Y2422416D02*
X37040025Y2498606D01*
X37040025Y2498606D02*
X37040025Y2650987D01*
X37040025Y2650987D02*
X37001930Y2727178D01*
X37001930Y2727178D02*
X36963835Y2765273D01*
X36963835Y2765273D02*
X36887644Y2803368D01*
X37382883Y2650987D02*
X37992407Y2650987D01*
X38754311Y3146225D02*
X38373359Y3146225D01*
X38373359Y3146225D02*
X38335263Y2765273D01*
X38335263Y2765273D02*
X38373359Y2803368D01*
X38373359Y2803368D02*
X38449549Y2841463D01*
X38449549Y2841463D02*
X38640025Y2841463D01*
X38640025Y2841463D02*
X38716216Y2803368D01*
X38716216Y2803368D02*
X38754311Y2765273D01*
X38754311Y2765273D02*
X38792406Y2689082D01*
X38792406Y2689082D02*
X38792406Y2498606D01*
X38792406Y2498606D02*
X38754311Y2422416D01*
X38754311Y2422416D02*
X38716216Y2384320D01*
X38716216Y2384320D02*
X38640025Y2346225D01*
X38640025Y2346225D02*
X38449549Y2346225D01*
X38449549Y2346225D02*
X38373359Y2384320D01*
X38373359Y2384320D02*
X38335263Y2422416D01*
X39516216Y3146225D02*
X39135264Y3146225D01*
X39135264Y3146225D02*
X39097168Y2765273D01*
X39097168Y2765273D02*
X39135264Y2803368D01*
X39135264Y2803368D02*
X39211454Y2841463D01*
X39211454Y2841463D02*
X39401930Y2841463D01*
X39401930Y2841463D02*
X39478121Y2803368D01*
X39478121Y2803368D02*
X39516216Y2765273D01*
X39516216Y2765273D02*
X39554311Y2689082D01*
X39554311Y2689082D02*
X39554311Y2498606D01*
X39554311Y2498606D02*
X39516216Y2422416D01*
X39516216Y2422416D02*
X39478121Y2384320D01*
X39478121Y2384320D02*
X39401930Y2346225D01*
X39401930Y2346225D02*
X39211454Y2346225D01*
X39211454Y2346225D02*
X39135264Y2384320D01*
X39135264Y2384320D02*
X39097168Y2422416D01*
X39897169Y2346225D02*
X39897169Y3146225D01*
X39897169Y3146225D02*
X40201931Y3146225D01*
X40201931Y3146225D02*
X40278121Y3108130D01*
X40278121Y3108130D02*
X40316216Y3070035D01*
X40316216Y3070035D02*
X40354312Y2993844D01*
X40354312Y2993844D02*
X40354312Y2879559D01*
X40354312Y2879559D02*
X40316216Y2803368D01*
X40316216Y2803368D02*
X40278121Y2765273D01*
X40278121Y2765273D02*
X40201931Y2727178D01*
X40201931Y2727178D02*
X39897169Y2727178D01*
X41154312Y2422416D02*
X41116216Y2384320D01*
X41116216Y2384320D02*
X41001931Y2346225D01*
X41001931Y2346225D02*
X40925740Y2346225D01*
X40925740Y2346225D02*
X40811454Y2384320D01*
X40811454Y2384320D02*
X40735264Y2460511D01*
X40735264Y2460511D02*
X40697169Y2536701D01*
X40697169Y2536701D02*
X40659073Y2689082D01*
X40659073Y2689082D02*
X40659073Y2803368D01*
X40659073Y2803368D02*
X40697169Y2955749D01*
X40697169Y2955749D02*
X40735264Y3031940D01*
X40735264Y3031940D02*
X40811454Y3108130D01*
X40811454Y3108130D02*
X40925740Y3146225D01*
X40925740Y3146225D02*
X41001931Y3146225D01*
X41001931Y3146225D02*
X41116216Y3108130D01*
X41116216Y3108130D02*
X41154312Y3070035D01*
X41497169Y2346225D02*
X41497169Y3146225D01*
X41497169Y3146225D02*
X41954312Y2346225D01*
X41954312Y2346225D02*
X41954312Y3146225D01*
X12329548Y19426225D02*
X12862882Y19426225D01*
X12862882Y19426225D02*
X12520024Y18626225D01*
X13510501Y19159559D02*
X13510501Y18626225D01*
X13320025Y19464320D02*
X13129548Y18892892D01*
X13129548Y18892892D02*
X13624787Y18892892D01*
X14310501Y18626225D02*
X13929549Y18626225D01*
X13929549Y18626225D02*
X13929549Y19426225D01*
X14539072Y18664320D02*
X14653358Y18626225D01*
X14653358Y18626225D02*
X14843834Y18626225D01*
X14843834Y18626225D02*
X14920025Y18664320D01*
X14920025Y18664320D02*
X14958120Y18702416D01*
X14958120Y18702416D02*
X14996215Y18778606D01*
X14996215Y18778606D02*
X14996215Y18854797D01*
X14996215Y18854797D02*
X14958120Y18930987D01*
X14958120Y18930987D02*
X14920025Y18969082D01*
X14920025Y18969082D02*
X14843834Y19007178D01*
X14843834Y19007178D02*
X14691453Y19045273D01*
X14691453Y19045273D02*
X14615263Y19083368D01*
X14615263Y19083368D02*
X14577168Y19121463D01*
X14577168Y19121463D02*
X14539072Y19197654D01*
X14539072Y19197654D02*
X14539072Y19273844D01*
X14539072Y19273844D02*
X14577168Y19350035D01*
X14577168Y19350035D02*
X14615263Y19388130D01*
X14615263Y19388130D02*
X14691453Y19426225D01*
X14691453Y19426225D02*
X14881930Y19426225D01*
X14881930Y19426225D02*
X14996215Y19388130D01*
X15262882Y19426225D02*
X15758120Y19426225D01*
X15758120Y19426225D02*
X15491454Y19121463D01*
X15491454Y19121463D02*
X15605739Y19121463D01*
X15605739Y19121463D02*
X15681930Y19083368D01*
X15681930Y19083368D02*
X15720025Y19045273D01*
X15720025Y19045273D02*
X15758120Y18969082D01*
X15758120Y18969082D02*
X15758120Y18778606D01*
X15758120Y18778606D02*
X15720025Y18702416D01*
X15720025Y18702416D02*
X15681930Y18664320D01*
X15681930Y18664320D02*
X15605739Y18626225D01*
X15605739Y18626225D02*
X15377168Y18626225D01*
X15377168Y18626225D02*
X15300977Y18664320D01*
X15300977Y18664320D02*
X15262882Y18702416D01*
X16024787Y19426225D02*
X16558121Y19426225D01*
X16558121Y19426225D02*
X16215263Y18626225D01*
X16786692Y19426225D02*
X17281930Y19426225D01*
X17281930Y19426225D02*
X17015264Y19121463D01*
X17015264Y19121463D02*
X17129549Y19121463D01*
X17129549Y19121463D02*
X17205740Y19083368D01*
X17205740Y19083368D02*
X17243835Y19045273D01*
X17243835Y19045273D02*
X17281930Y18969082D01*
X17281930Y18969082D02*
X17281930Y18778606D01*
X17281930Y18778606D02*
X17243835Y18702416D01*
X17243835Y18702416D02*
X17205740Y18664320D01*
X17205740Y18664320D02*
X17129549Y18626225D01*
X17129549Y18626225D02*
X16900978Y18626225D01*
X16900978Y18626225D02*
X16824787Y18664320D01*
X16824787Y18664320D02*
X16786692Y18702416D01*
X12489548Y49366225D02*
X13022882Y49366225D01*
X13022882Y49366225D02*
X12680024Y48566225D01*
X13670501Y49099559D02*
X13670501Y48566225D01*
X13480025Y49404320D02*
X13289548Y48832892D01*
X13289548Y48832892D02*
X13784787Y48832892D01*
X14470501Y48566225D02*
X14089549Y48566225D01*
X14089549Y48566225D02*
X14089549Y49366225D01*
X14699072Y48604320D02*
X14813358Y48566225D01*
X14813358Y48566225D02*
X15003834Y48566225D01*
X15003834Y48566225D02*
X15080025Y48604320D01*
X15080025Y48604320D02*
X15118120Y48642416D01*
X15118120Y48642416D02*
X15156215Y48718606D01*
X15156215Y48718606D02*
X15156215Y48794797D01*
X15156215Y48794797D02*
X15118120Y48870987D01*
X15118120Y48870987D02*
X15080025Y48909082D01*
X15080025Y48909082D02*
X15003834Y48947178D01*
X15003834Y48947178D02*
X14851453Y48985273D01*
X14851453Y48985273D02*
X14775263Y49023368D01*
X14775263Y49023368D02*
X14737168Y49061463D01*
X14737168Y49061463D02*
X14699072Y49137654D01*
X14699072Y49137654D02*
X14699072Y49213844D01*
X14699072Y49213844D02*
X14737168Y49290035D01*
X14737168Y49290035D02*
X14775263Y49328130D01*
X14775263Y49328130D02*
X14851453Y49366225D01*
X14851453Y49366225D02*
X15041930Y49366225D01*
X15041930Y49366225D02*
X15156215Y49328130D01*
X15422882Y49366225D02*
X15918120Y49366225D01*
X15918120Y49366225D02*
X15651454Y49061463D01*
X15651454Y49061463D02*
X15765739Y49061463D01*
X15765739Y49061463D02*
X15841930Y49023368D01*
X15841930Y49023368D02*
X15880025Y48985273D01*
X15880025Y48985273D02*
X15918120Y48909082D01*
X15918120Y48909082D02*
X15918120Y48718606D01*
X15918120Y48718606D02*
X15880025Y48642416D01*
X15880025Y48642416D02*
X15841930Y48604320D01*
X15841930Y48604320D02*
X15765739Y48566225D01*
X15765739Y48566225D02*
X15537168Y48566225D01*
X15537168Y48566225D02*
X15460977Y48604320D01*
X15460977Y48604320D02*
X15422882Y48642416D01*
X16184787Y49366225D02*
X16718121Y49366225D01*
X16718121Y49366225D02*
X16375263Y48566225D01*
X16946692Y49366225D02*
X17441930Y49366225D01*
X17441930Y49366225D02*
X17175264Y49061463D01*
X17175264Y49061463D02*
X17289549Y49061463D01*
X17289549Y49061463D02*
X17365740Y49023368D01*
X17365740Y49023368D02*
X17403835Y48985273D01*
X17403835Y48985273D02*
X17441930Y48909082D01*
X17441930Y48909082D02*
X17441930Y48718606D01*
X17441930Y48718606D02*
X17403835Y48642416D01*
X17403835Y48642416D02*
X17365740Y48604320D01*
X17365740Y48604320D02*
X17289549Y48566225D01*
X17289549Y48566225D02*
X17060978Y48566225D01*
X17060978Y48566225D02*
X16984787Y48604320D01*
X16984787Y48604320D02*
X16946692Y48642416D01*
X1807643Y84614320D02*
X1921929Y84576225D01*
X1921929Y84576225D02*
X2112405Y84576225D01*
X2112405Y84576225D02*
X2188596Y84614320D01*
X2188596Y84614320D02*
X2226691Y84652416D01*
X2226691Y84652416D02*
X2264786Y84728606D01*
X2264786Y84728606D02*
X2264786Y84804797D01*
X2264786Y84804797D02*
X2226691Y84880987D01*
X2226691Y84880987D02*
X2188596Y84919082D01*
X2188596Y84919082D02*
X2112405Y84957178D01*
X2112405Y84957178D02*
X1960024Y84995273D01*
X1960024Y84995273D02*
X1883834Y85033368D01*
X1883834Y85033368D02*
X1845739Y85071463D01*
X1845739Y85071463D02*
X1807643Y85147654D01*
X1807643Y85147654D02*
X1807643Y85223844D01*
X1807643Y85223844D02*
X1845739Y85300035D01*
X1845739Y85300035D02*
X1883834Y85338130D01*
X1883834Y85338130D02*
X1960024Y85376225D01*
X1960024Y85376225D02*
X2150501Y85376225D01*
X2150501Y85376225D02*
X2264786Y85338130D01*
X3064787Y84652416D02*
X3026691Y84614320D01*
X3026691Y84614320D02*
X2912406Y84576225D01*
X2912406Y84576225D02*
X2836215Y84576225D01*
X2836215Y84576225D02*
X2721929Y84614320D01*
X2721929Y84614320D02*
X2645739Y84690511D01*
X2645739Y84690511D02*
X2607644Y84766701D01*
X2607644Y84766701D02*
X2569548Y84919082D01*
X2569548Y84919082D02*
X2569548Y85033368D01*
X2569548Y85033368D02*
X2607644Y85185749D01*
X2607644Y85185749D02*
X2645739Y85261940D01*
X2645739Y85261940D02*
X2721929Y85338130D01*
X2721929Y85338130D02*
X2836215Y85376225D01*
X2836215Y85376225D02*
X2912406Y85376225D01*
X2912406Y85376225D02*
X3026691Y85338130D01*
X3026691Y85338130D02*
X3064787Y85300035D01*
X3788596Y84576225D02*
X3407644Y84576225D01*
X3407644Y84576225D02*
X3407644Y85376225D01*
X58133775Y51749549D02*
X58133775Y52282883D01*
X58133775Y52282883D02*
X58933775Y51940025D01*
X58400441Y52930502D02*
X58933775Y52930502D01*
X58095680Y52740026D02*
X58667108Y52549549D01*
X58667108Y52549549D02*
X58667108Y53044788D01*
X58933775Y53730502D02*
X58933775Y53349550D01*
X58933775Y53349550D02*
X58133775Y53349550D01*
X58895680Y53959073D02*
X58933775Y54073359D01*
X58933775Y54073359D02*
X58933775Y54263835D01*
X58933775Y54263835D02*
X58895680Y54340026D01*
X58895680Y54340026D02*
X58857584Y54378121D01*
X58857584Y54378121D02*
X58781394Y54416216D01*
X58781394Y54416216D02*
X58705203Y54416216D01*
X58705203Y54416216D02*
X58629013Y54378121D01*
X58629013Y54378121D02*
X58590918Y54340026D01*
X58590918Y54340026D02*
X58552822Y54263835D01*
X58552822Y54263835D02*
X58514727Y54111454D01*
X58514727Y54111454D02*
X58476632Y54035264D01*
X58476632Y54035264D02*
X58438537Y53997169D01*
X58438537Y53997169D02*
X58362346Y53959073D01*
X58362346Y53959073D02*
X58286156Y53959073D01*
X58286156Y53959073D02*
X58209965Y53997169D01*
X58209965Y53997169D02*
X58171870Y54035264D01*
X58171870Y54035264D02*
X58133775Y54111454D01*
X58133775Y54111454D02*
X58133775Y54301931D01*
X58133775Y54301931D02*
X58171870Y54416216D01*
X58133775Y54682883D02*
X58133775Y55178121D01*
X58133775Y55178121D02*
X58438537Y54911455D01*
X58438537Y54911455D02*
X58438537Y55025740D01*
X58438537Y55025740D02*
X58476632Y55101931D01*
X58476632Y55101931D02*
X58514727Y55140026D01*
X58514727Y55140026D02*
X58590918Y55178121D01*
X58590918Y55178121D02*
X58781394Y55178121D01*
X58781394Y55178121D02*
X58857584Y55140026D01*
X58857584Y55140026D02*
X58895680Y55101931D01*
X58895680Y55101931D02*
X58933775Y55025740D01*
X58933775Y55025740D02*
X58933775Y54797169D01*
X58933775Y54797169D02*
X58895680Y54720978D01*
X58895680Y54720978D02*
X58857584Y54682883D01*
X58133775Y55444788D02*
X58133775Y55978122D01*
X58133775Y55978122D02*
X58933775Y55635264D01*
X58133775Y56206693D02*
X58133775Y56701931D01*
X58133775Y56701931D02*
X58438537Y56435265D01*
X58438537Y56435265D02*
X58438537Y56549550D01*
X58438537Y56549550D02*
X58476632Y56625741D01*
X58476632Y56625741D02*
X58514727Y56663836D01*
X58514727Y56663836D02*
X58590918Y56701931D01*
X58590918Y56701931D02*
X58781394Y56701931D01*
X58781394Y56701931D02*
X58857584Y56663836D01*
X58857584Y56663836D02*
X58895680Y56625741D01*
X58895680Y56625741D02*
X58933775Y56549550D01*
X58933775Y56549550D02*
X58933775Y56320979D01*
X58933775Y56320979D02*
X58895680Y56244788D01*
X58895680Y56244788D02*
X58857584Y56206693D01*
D11*
X3492455Y14700867D02*
X3492455Y15400867D01*
X3892455Y14700867D02*
X3592455Y15100867D01*
X3892455Y15400867D02*
X3492455Y15000867D01*
D13*
X40930739Y-7443775D02*
X40930739Y-6643775D01*
X41387882Y-7443775D02*
X41045024Y-6986632D01*
X41387882Y-6643775D02*
X40930739Y-7100918D01*
D14*
X65967219Y84869674D02*
X64967219Y84869674D01*
X65395790Y85488721D02*
X65348171Y85393483D01*
X65348171Y85393483D02*
X65300552Y85345864D01*
X65300552Y85345864D02*
X65205314Y85298245D01*
X65205314Y85298245D02*
X65157695Y85298245D01*
X65157695Y85298245D02*
X65062457Y85345864D01*
X65062457Y85345864D02*
X65014838Y85393483D01*
X65014838Y85393483D02*
X64967219Y85488721D01*
X64967219Y85488721D02*
X64967219Y85679197D01*
X64967219Y85679197D02*
X65014838Y85774435D01*
X65014838Y85774435D02*
X65062457Y85822054D01*
X65062457Y85822054D02*
X65157695Y85869673D01*
X65157695Y85869673D02*
X65205314Y85869673D01*
X65205314Y85869673D02*
X65300552Y85822054D01*
X65300552Y85822054D02*
X65348171Y85774435D01*
X65348171Y85774435D02*
X65395790Y85679197D01*
X65395790Y85679197D02*
X65395790Y85488721D01*
X65395790Y85488721D02*
X65443409Y85393483D01*
X65443409Y85393483D02*
X65491028Y85345864D01*
X65491028Y85345864D02*
X65586266Y85298245D01*
X65586266Y85298245D02*
X65776742Y85298245D01*
X65776742Y85298245D02*
X65871980Y85345864D01*
X65871980Y85345864D02*
X65919600Y85393483D01*
X65919600Y85393483D02*
X65967219Y85488721D01*
X65967219Y85488721D02*
X65967219Y85679197D01*
X65967219Y85679197D02*
X65919600Y85774435D01*
X65919600Y85774435D02*
X65871980Y85822054D01*
X65871980Y85822054D02*
X65776742Y85869673D01*
X65776742Y85869673D02*
X65586266Y85869673D01*
X65586266Y85869673D02*
X65491028Y85822054D01*
X65491028Y85822054D02*
X65443409Y85774435D01*
X65443409Y85774435D02*
X65395790Y85679197D01*
X64967219Y86488721D02*
X64967219Y86583959D01*
X64967219Y86583959D02*
X65014838Y86679197D01*
X65014838Y86679197D02*
X65062457Y86726816D01*
X65062457Y86726816D02*
X65157695Y86774435D01*
X65157695Y86774435D02*
X65348171Y86822054D01*
X65348171Y86822054D02*
X65586266Y86822054D01*
X65586266Y86822054D02*
X65776742Y86774435D01*
X65776742Y86774435D02*
X65871980Y86726816D01*
X65871980Y86726816D02*
X65919600Y86679197D01*
X65919600Y86679197D02*
X65967219Y86583959D01*
X65967219Y86583959D02*
X65967219Y86488721D01*
X65967219Y86488721D02*
X65919600Y86393483D01*
X65919600Y86393483D02*
X65871980Y86345864D01*
X65871980Y86345864D02*
X65776742Y86298245D01*
X65776742Y86298245D02*
X65586266Y86250626D01*
X65586266Y86250626D02*
X65348171Y86250626D01*
X65348171Y86250626D02*
X65157695Y86298245D01*
X65157695Y86298245D02*
X65062457Y86345864D01*
X65062457Y86345864D02*
X65014838Y86393483D01*
X65014838Y86393483D02*
X64967219Y86488721D01*
X65395790Y87393483D02*
X65348171Y87298245D01*
X65348171Y87298245D02*
X65300552Y87250626D01*
X65300552Y87250626D02*
X65205314Y87203007D01*
X65205314Y87203007D02*
X65157695Y87203007D01*
X65157695Y87203007D02*
X65062457Y87250626D01*
X65062457Y87250626D02*
X65014838Y87298245D01*
X65014838Y87298245D02*
X64967219Y87393483D01*
X64967219Y87393483D02*
X64967219Y87583959D01*
X64967219Y87583959D02*
X65014838Y87679197D01*
X65014838Y87679197D02*
X65062457Y87726816D01*
X65062457Y87726816D02*
X65157695Y87774435D01*
X65157695Y87774435D02*
X65205314Y87774435D01*
X65205314Y87774435D02*
X65300552Y87726816D01*
X65300552Y87726816D02*
X65348171Y87679197D01*
X65348171Y87679197D02*
X65395790Y87583959D01*
X65395790Y87583959D02*
X65395790Y87393483D01*
X65395790Y87393483D02*
X65443409Y87298245D01*
X65443409Y87298245D02*
X65491028Y87250626D01*
X65491028Y87250626D02*
X65586266Y87203007D01*
X65586266Y87203007D02*
X65776742Y87203007D01*
X65776742Y87203007D02*
X65871980Y87250626D01*
X65871980Y87250626D02*
X65919600Y87298245D01*
X65919600Y87298245D02*
X65967219Y87393483D01*
X65967219Y87393483D02*
X65967219Y87583959D01*
X65967219Y87583959D02*
X65919600Y87679197D01*
X65919600Y87679197D02*
X65871980Y87726816D01*
X65871980Y87726816D02*
X65776742Y87774435D01*
X65776742Y87774435D02*
X65586266Y87774435D01*
X65586266Y87774435D02*
X65491028Y87726816D01*
X65491028Y87726816D02*
X65443409Y87679197D01*
X65443409Y87679197D02*
X65395790Y87583959D01*
X64967219Y88631578D02*
X64967219Y88441102D01*
X64967219Y88441102D02*
X65014838Y88345864D01*
X65014838Y88345864D02*
X65062457Y88298245D01*
X65062457Y88298245D02*
X65205314Y88203007D01*
X65205314Y88203007D02*
X65395790Y88155388D01*
X65395790Y88155388D02*
X65776742Y88155388D01*
X65776742Y88155388D02*
X65871980Y88203007D01*
X65871980Y88203007D02*
X65919600Y88250626D01*
X65919600Y88250626D02*
X65967219Y88345864D01*
X65967219Y88345864D02*
X65967219Y88536340D01*
X65967219Y88536340D02*
X65919600Y88631578D01*
X65919600Y88631578D02*
X65871980Y88679197D01*
X65871980Y88679197D02*
X65776742Y88726816D01*
X65776742Y88726816D02*
X65538647Y88726816D01*
X65538647Y88726816D02*
X65443409Y88679197D01*
X65443409Y88679197D02*
X65395790Y88631578D01*
X65395790Y88631578D02*
X65348171Y88536340D01*
X65348171Y88536340D02*
X65348171Y88345864D01*
X65348171Y88345864D02*
X65395790Y88250626D01*
X65395790Y88250626D02*
X65443409Y88203007D01*
X65443409Y88203007D02*
X65538647Y88155388D01*
D11*
X7509122Y14930867D02*
X7842455Y14930867D01*
X7442455Y14730867D02*
X7675789Y15430867D01*
X7675789Y15430867D02*
X7909122Y14730867D01*
D13*
X50907643Y2634797D02*
X51288596Y2634797D01*
X50831453Y2406225D02*
X51098120Y3206225D01*
X51098120Y3206225D02*
X51364786Y2406225D01*
X51593357Y2444320D02*
X51707643Y2406225D01*
X51707643Y2406225D02*
X51898119Y2406225D01*
X51898119Y2406225D02*
X51974310Y2444320D01*
X51974310Y2444320D02*
X52012405Y2482416D01*
X52012405Y2482416D02*
X52050500Y2558606D01*
X52050500Y2558606D02*
X52050500Y2634797D01*
X52050500Y2634797D02*
X52012405Y2710987D01*
X52012405Y2710987D02*
X51974310Y2749082D01*
X51974310Y2749082D02*
X51898119Y2787178D01*
X51898119Y2787178D02*
X51745738Y2825273D01*
X51745738Y2825273D02*
X51669548Y2863368D01*
X51669548Y2863368D02*
X51631453Y2901463D01*
X51631453Y2901463D02*
X51593357Y2977654D01*
X51593357Y2977654D02*
X51593357Y3053844D01*
X51593357Y3053844D02*
X51631453Y3130035D01*
X51631453Y3130035D02*
X51669548Y3168130D01*
X51669548Y3168130D02*
X51745738Y3206225D01*
X51745738Y3206225D02*
X51936215Y3206225D01*
X51936215Y3206225D02*
X52050500Y3168130D01*
X52736215Y3206225D02*
X52583834Y3206225D01*
X52583834Y3206225D02*
X52507643Y3168130D01*
X52507643Y3168130D02*
X52469548Y3130035D01*
X52469548Y3130035D02*
X52393358Y3015749D01*
X52393358Y3015749D02*
X52355262Y2863368D01*
X52355262Y2863368D02*
X52355262Y2558606D01*
X52355262Y2558606D02*
X52393358Y2482416D01*
X52393358Y2482416D02*
X52431453Y2444320D01*
X52431453Y2444320D02*
X52507643Y2406225D01*
X52507643Y2406225D02*
X52660024Y2406225D01*
X52660024Y2406225D02*
X52736215Y2444320D01*
X52736215Y2444320D02*
X52774310Y2482416D01*
X52774310Y2482416D02*
X52812405Y2558606D01*
X52812405Y2558606D02*
X52812405Y2749082D01*
X52812405Y2749082D02*
X52774310Y2825273D01*
X52774310Y2825273D02*
X52736215Y2863368D01*
X52736215Y2863368D02*
X52660024Y2901463D01*
X52660024Y2901463D02*
X52507643Y2901463D01*
X52507643Y2901463D02*
X52431453Y2863368D01*
X52431453Y2863368D02*
X52393358Y2825273D01*
X52393358Y2825273D02*
X52355262Y2749082D01*
X53612406Y2482416D02*
X53574310Y2444320D01*
X53574310Y2444320D02*
X53460025Y2406225D01*
X53460025Y2406225D02*
X53383834Y2406225D01*
X53383834Y2406225D02*
X53269548Y2444320D01*
X53269548Y2444320D02*
X53193358Y2520511D01*
X53193358Y2520511D02*
X53155263Y2596701D01*
X53155263Y2596701D02*
X53117167Y2749082D01*
X53117167Y2749082D02*
X53117167Y2863368D01*
X53117167Y2863368D02*
X53155263Y3015749D01*
X53155263Y3015749D02*
X53193358Y3091940D01*
X53193358Y3091940D02*
X53269548Y3168130D01*
X53269548Y3168130D02*
X53383834Y3206225D01*
X53383834Y3206225D02*
X53460025Y3206225D01*
X53460025Y3206225D02*
X53574310Y3168130D01*
X53574310Y3168130D02*
X53612406Y3130035D01*
X54298120Y2939559D02*
X54298120Y2406225D01*
X54107644Y3244320D02*
X53917167Y2672892D01*
X53917167Y2672892D02*
X54412406Y2672892D01*
X54869549Y3206225D02*
X54945739Y3206225D01*
X54945739Y3206225D02*
X55021930Y3168130D01*
X55021930Y3168130D02*
X55060025Y3130035D01*
X55060025Y3130035D02*
X55098120Y3053844D01*
X55098120Y3053844D02*
X55136215Y2901463D01*
X55136215Y2901463D02*
X55136215Y2710987D01*
X55136215Y2710987D02*
X55098120Y2558606D01*
X55098120Y2558606D02*
X55060025Y2482416D01*
X55060025Y2482416D02*
X55021930Y2444320D01*
X55021930Y2444320D02*
X54945739Y2406225D01*
X54945739Y2406225D02*
X54869549Y2406225D01*
X54869549Y2406225D02*
X54793358Y2444320D01*
X54793358Y2444320D02*
X54755263Y2482416D01*
X54755263Y2482416D02*
X54717168Y2558606D01*
X54717168Y2558606D02*
X54679072Y2710987D01*
X54679072Y2710987D02*
X54679072Y2901463D01*
X54679072Y2901463D02*
X54717168Y3053844D01*
X54717168Y3053844D02*
X54755263Y3130035D01*
X54755263Y3130035D02*
X54793358Y3168130D01*
X54793358Y3168130D02*
X54869549Y3206225D01*
X55631454Y3206225D02*
X55707644Y3206225D01*
X55707644Y3206225D02*
X55783835Y3168130D01*
X55783835Y3168130D02*
X55821930Y3130035D01*
X55821930Y3130035D02*
X55860025Y3053844D01*
X55860025Y3053844D02*
X55898120Y2901463D01*
X55898120Y2901463D02*
X55898120Y2710987D01*
X55898120Y2710987D02*
X55860025Y2558606D01*
X55860025Y2558606D02*
X55821930Y2482416D01*
X55821930Y2482416D02*
X55783835Y2444320D01*
X55783835Y2444320D02*
X55707644Y2406225D01*
X55707644Y2406225D02*
X55631454Y2406225D01*
X55631454Y2406225D02*
X55555263Y2444320D01*
X55555263Y2444320D02*
X55517168Y2482416D01*
X55517168Y2482416D02*
X55479073Y2558606D01*
X55479073Y2558606D02*
X55440977Y2710987D01*
X55440977Y2710987D02*
X55440977Y2901463D01*
X55440977Y2901463D02*
X55479073Y3053844D01*
X55479073Y3053844D02*
X55517168Y3130035D01*
X55517168Y3130035D02*
X55555263Y3168130D01*
X55555263Y3168130D02*
X55631454Y3206225D01*
X56355263Y2863368D02*
X56279073Y2901463D01*
X56279073Y2901463D02*
X56240978Y2939559D01*
X56240978Y2939559D02*
X56202882Y3015749D01*
X56202882Y3015749D02*
X56202882Y3053844D01*
X56202882Y3053844D02*
X56240978Y3130035D01*
X56240978Y3130035D02*
X56279073Y3168130D01*
X56279073Y3168130D02*
X56355263Y3206225D01*
X56355263Y3206225D02*
X56507644Y3206225D01*
X56507644Y3206225D02*
X56583835Y3168130D01*
X56583835Y3168130D02*
X56621930Y3130035D01*
X56621930Y3130035D02*
X56660025Y3053844D01*
X56660025Y3053844D02*
X56660025Y3015749D01*
X56660025Y3015749D02*
X56621930Y2939559D01*
X56621930Y2939559D02*
X56583835Y2901463D01*
X56583835Y2901463D02*
X56507644Y2863368D01*
X56507644Y2863368D02*
X56355263Y2863368D01*
X56355263Y2863368D02*
X56279073Y2825273D01*
X56279073Y2825273D02*
X56240978Y2787178D01*
X56240978Y2787178D02*
X56202882Y2710987D01*
X56202882Y2710987D02*
X56202882Y2558606D01*
X56202882Y2558606D02*
X56240978Y2482416D01*
X56240978Y2482416D02*
X56279073Y2444320D01*
X56279073Y2444320D02*
X56355263Y2406225D01*
X56355263Y2406225D02*
X56507644Y2406225D01*
X56507644Y2406225D02*
X56583835Y2444320D01*
X56583835Y2444320D02*
X56621930Y2482416D01*
X56621930Y2482416D02*
X56660025Y2558606D01*
X56660025Y2558606D02*
X56660025Y2710987D01*
X56660025Y2710987D02*
X56621930Y2787178D01*
X56621930Y2787178D02*
X56583835Y2825273D01*
X56583835Y2825273D02*
X56507644Y2863368D01*
X57002883Y2710987D02*
X57612407Y2710987D01*
X58374311Y3206225D02*
X57993359Y3206225D01*
X57993359Y3206225D02*
X57955263Y2825273D01*
X57955263Y2825273D02*
X57993359Y2863368D01*
X57993359Y2863368D02*
X58069549Y2901463D01*
X58069549Y2901463D02*
X58260025Y2901463D01*
X58260025Y2901463D02*
X58336216Y2863368D01*
X58336216Y2863368D02*
X58374311Y2825273D01*
X58374311Y2825273D02*
X58412406Y2749082D01*
X58412406Y2749082D02*
X58412406Y2558606D01*
X58412406Y2558606D02*
X58374311Y2482416D01*
X58374311Y2482416D02*
X58336216Y2444320D01*
X58336216Y2444320D02*
X58260025Y2406225D01*
X58260025Y2406225D02*
X58069549Y2406225D01*
X58069549Y2406225D02*
X57993359Y2444320D01*
X57993359Y2444320D02*
X57955263Y2482416D01*
X59136216Y3206225D02*
X58755264Y3206225D01*
X58755264Y3206225D02*
X58717168Y2825273D01*
X58717168Y2825273D02*
X58755264Y2863368D01*
X58755264Y2863368D02*
X58831454Y2901463D01*
X58831454Y2901463D02*
X59021930Y2901463D01*
X59021930Y2901463D02*
X59098121Y2863368D01*
X59098121Y2863368D02*
X59136216Y2825273D01*
X59136216Y2825273D02*
X59174311Y2749082D01*
X59174311Y2749082D02*
X59174311Y2558606D01*
X59174311Y2558606D02*
X59136216Y2482416D01*
X59136216Y2482416D02*
X59098121Y2444320D01*
X59098121Y2444320D02*
X59021930Y2406225D01*
X59021930Y2406225D02*
X58831454Y2406225D01*
X58831454Y2406225D02*
X58755264Y2444320D01*
X58755264Y2444320D02*
X58717168Y2482416D01*
X59517169Y2406225D02*
X59517169Y3206225D01*
X59517169Y3206225D02*
X59821931Y3206225D01*
X59821931Y3206225D02*
X59898121Y3168130D01*
X59898121Y3168130D02*
X59936216Y3130035D01*
X59936216Y3130035D02*
X59974312Y3053844D01*
X59974312Y3053844D02*
X59974312Y2939559D01*
X59974312Y2939559D02*
X59936216Y2863368D01*
X59936216Y2863368D02*
X59898121Y2825273D01*
X59898121Y2825273D02*
X59821931Y2787178D01*
X59821931Y2787178D02*
X59517169Y2787178D01*
X60774312Y2482416D02*
X60736216Y2444320D01*
X60736216Y2444320D02*
X60621931Y2406225D01*
X60621931Y2406225D02*
X60545740Y2406225D01*
X60545740Y2406225D02*
X60431454Y2444320D01*
X60431454Y2444320D02*
X60355264Y2520511D01*
X60355264Y2520511D02*
X60317169Y2596701D01*
X60317169Y2596701D02*
X60279073Y2749082D01*
X60279073Y2749082D02*
X60279073Y2863368D01*
X60279073Y2863368D02*
X60317169Y3015749D01*
X60317169Y3015749D02*
X60355264Y3091940D01*
X60355264Y3091940D02*
X60431454Y3168130D01*
X60431454Y3168130D02*
X60545740Y3206225D01*
X60545740Y3206225D02*
X60621931Y3206225D01*
X60621931Y3206225D02*
X60736216Y3168130D01*
X60736216Y3168130D02*
X60774312Y3130035D01*
X61117169Y2406225D02*
X61117169Y3206225D01*
X61117169Y3206225D02*
X61574312Y2406225D01*
X61574312Y2406225D02*
X61574312Y3206225D01*
D10*
X60076779Y55810181D02*
X60076779Y56810181D01*
X60076779Y56333991D02*
X60648207Y56333991D01*
X60648207Y55810181D02*
X60648207Y56810181D01*
X61314874Y56810181D02*
X61505350Y56810181D01*
X61505350Y56810181D02*
X61600588Y56762562D01*
X61600588Y56762562D02*
X61695826Y56667324D01*
X61695826Y56667324D02*
X61743445Y56476848D01*
X61743445Y56476848D02*
X61743445Y56143515D01*
X61743445Y56143515D02*
X61695826Y55953039D01*
X61695826Y55953039D02*
X61600588Y55857800D01*
X61600588Y55857800D02*
X61505350Y55810181D01*
X61505350Y55810181D02*
X61314874Y55810181D01*
X61314874Y55810181D02*
X61219636Y55857800D01*
X61219636Y55857800D02*
X61124398Y55953039D01*
X61124398Y55953039D02*
X61076779Y56143515D01*
X61076779Y56143515D02*
X61076779Y56476848D01*
X61076779Y56476848D02*
X61124398Y56667324D01*
X61124398Y56667324D02*
X61219636Y56762562D01*
X61219636Y56762562D02*
X61314874Y56810181D01*
X62648207Y55810181D02*
X62172017Y55810181D01*
X62172017Y55810181D02*
X62172017Y56810181D01*
X62981541Y55810181D02*
X62981541Y56810181D01*
X62981541Y56810181D02*
X63219636Y56810181D01*
X63219636Y56810181D02*
X63362493Y56762562D01*
X63362493Y56762562D02*
X63457731Y56667324D01*
X63457731Y56667324D02*
X63505350Y56572086D01*
X63505350Y56572086D02*
X63552969Y56381610D01*
X63552969Y56381610D02*
X63552969Y56238753D01*
X63552969Y56238753D02*
X63505350Y56048277D01*
X63505350Y56048277D02*
X63457731Y55953039D01*
X63457731Y55953039D02*
X63362493Y55857800D01*
X63362493Y55857800D02*
X63219636Y55810181D01*
X63219636Y55810181D02*
X62981541Y55810181D01*
X63933922Y56095896D02*
X64410112Y56095896D01*
X63838684Y55810181D02*
X64172017Y56810181D01*
X64172017Y56810181D02*
X64505350Y55810181D01*
D11*
X60019122Y57480867D02*
X60352455Y57480867D01*
X59952455Y57280867D02*
X60185789Y57980867D01*
X60185789Y57980867D02*
X60419122Y57280867D01*
D10*
X3199160Y13337800D02*
X3342017Y13290181D01*
X3342017Y13290181D02*
X3580112Y13290181D01*
X3580112Y13290181D02*
X3675350Y13337800D01*
X3675350Y13337800D02*
X3722969Y13385420D01*
X3722969Y13385420D02*
X3770588Y13480658D01*
X3770588Y13480658D02*
X3770588Y13575896D01*
X3770588Y13575896D02*
X3722969Y13671134D01*
X3722969Y13671134D02*
X3675350Y13718753D01*
X3675350Y13718753D02*
X3580112Y13766372D01*
X3580112Y13766372D02*
X3389636Y13813991D01*
X3389636Y13813991D02*
X3294398Y13861610D01*
X3294398Y13861610D02*
X3246779Y13909229D01*
X3246779Y13909229D02*
X3199160Y14004467D01*
X3199160Y14004467D02*
X3199160Y14099705D01*
X3199160Y14099705D02*
X3246779Y14194943D01*
X3246779Y14194943D02*
X3294398Y14242562D01*
X3294398Y14242562D02*
X3389636Y14290181D01*
X3389636Y14290181D02*
X3627731Y14290181D01*
X3627731Y14290181D02*
X3770588Y14242562D01*
X4199160Y13290181D02*
X4199160Y14290181D01*
X4199160Y14290181D02*
X4580112Y14290181D01*
X4580112Y14290181D02*
X4675350Y14242562D01*
X4675350Y14242562D02*
X4722969Y14194943D01*
X4722969Y14194943D02*
X4770588Y14099705D01*
X4770588Y14099705D02*
X4770588Y13956848D01*
X4770588Y13956848D02*
X4722969Y13861610D01*
X4722969Y13861610D02*
X4675350Y13813991D01*
X4675350Y13813991D02*
X4580112Y13766372D01*
X4580112Y13766372D02*
X4199160Y13766372D01*
X5199160Y13290181D02*
X5199160Y14290181D01*
X5437255Y13194943D02*
X6199159Y13194943D01*
X7008683Y13385420D02*
X6961064Y13337800D01*
X6961064Y13337800D02*
X6818207Y13290181D01*
X6818207Y13290181D02*
X6722969Y13290181D01*
X6722969Y13290181D02*
X6580112Y13337800D01*
X6580112Y13337800D02*
X6484874Y13433039D01*
X6484874Y13433039D02*
X6437255Y13528277D01*
X6437255Y13528277D02*
X6389636Y13718753D01*
X6389636Y13718753D02*
X6389636Y13861610D01*
X6389636Y13861610D02*
X6437255Y14052086D01*
X6437255Y14052086D02*
X6484874Y14147324D01*
X6484874Y14147324D02*
X6580112Y14242562D01*
X6580112Y14242562D02*
X6722969Y14290181D01*
X6722969Y14290181D02*
X6818207Y14290181D01*
X6818207Y14290181D02*
X6961064Y14242562D01*
X6961064Y14242562D02*
X7008683Y14194943D01*
X7389636Y13337800D02*
X7532493Y13290181D01*
X7532493Y13290181D02*
X7770588Y13290181D01*
X7770588Y13290181D02*
X7865826Y13337800D01*
X7865826Y13337800D02*
X7913445Y13385420D01*
X7913445Y13385420D02*
X7961064Y13480658D01*
X7961064Y13480658D02*
X7961064Y13575896D01*
X7961064Y13575896D02*
X7913445Y13671134D01*
X7913445Y13671134D02*
X7865826Y13718753D01*
X7865826Y13718753D02*
X7770588Y13766372D01*
X7770588Y13766372D02*
X7580112Y13813991D01*
X7580112Y13813991D02*
X7484874Y13861610D01*
X7484874Y13861610D02*
X7437255Y13909229D01*
X7437255Y13909229D02*
X7389636Y14004467D01*
X7389636Y14004467D02*
X7389636Y14099705D01*
X7389636Y14099705D02*
X7437255Y14194943D01*
X7437255Y14194943D02*
X7484874Y14242562D01*
X7484874Y14242562D02*
X7580112Y14290181D01*
X7580112Y14290181D02*
X7818207Y14290181D01*
X7818207Y14290181D02*
X7961064Y14242562D01*
D11*
X63569133Y64224123D02*
X63569133Y64557456D01*
X63769133Y64157456D02*
X63069133Y64390789D01*
X63069133Y64390789D02*
X63769133Y64624123D01*
X63069133Y64757456D02*
X63069133Y65157456D01*
X63769133Y64957456D02*
X63069133Y64957456D01*
X63402466Y65624122D02*
X63402466Y65390789D01*
X63769133Y65390789D02*
X63069133Y65390789D01*
X63069133Y65390789D02*
X63069133Y65724122D01*
X63135800Y65957456D02*
X63102466Y65990789D01*
X63102466Y65990789D02*
X63069133Y66057456D01*
X63069133Y66057456D02*
X63069133Y66224122D01*
X63069133Y66224122D02*
X63102466Y66290789D01*
X63102466Y66290789D02*
X63135800Y66324122D01*
X63135800Y66324122D02*
X63202466Y66357456D01*
X63202466Y66357456D02*
X63269133Y66357456D01*
X63269133Y66357456D02*
X63369133Y66324122D01*
X63369133Y66324122D02*
X63769133Y65924122D01*
X63769133Y65924122D02*
X63769133Y66357456D01*
X63135800Y66624123D02*
X63102466Y66657456D01*
X63102466Y66657456D02*
X63069133Y66724123D01*
X63069133Y66724123D02*
X63069133Y66890789D01*
X63069133Y66890789D02*
X63102466Y66957456D01*
X63102466Y66957456D02*
X63135800Y66990789D01*
X63135800Y66990789D02*
X63202466Y67024123D01*
X63202466Y67024123D02*
X63269133Y67024123D01*
X63269133Y67024123D02*
X63369133Y66990789D01*
X63369133Y66990789D02*
X63769133Y66590789D01*
X63769133Y66590789D02*
X63769133Y67024123D01*
X63069133Y67224123D02*
X63769133Y67457456D01*
X63769133Y67457456D02*
X63069133Y67690790D01*
X63769133Y68290790D02*
X63769133Y67890790D01*
X63769133Y68090790D02*
X63069133Y68090790D01*
X63069133Y68090790D02*
X63169133Y68024123D01*
X63169133Y68024123D02*
X63235800Y67957456D01*
X63235800Y67957456D02*
X63269133Y67890790D01*
X63069133Y68724123D02*
X63069133Y68790790D01*
X63069133Y68790790D02*
X63102466Y68857457D01*
X63102466Y68857457D02*
X63135800Y68890790D01*
X63135800Y68890790D02*
X63202466Y68924123D01*
X63202466Y68924123D02*
X63335800Y68957457D01*
X63335800Y68957457D02*
X63502466Y68957457D01*
X63502466Y68957457D02*
X63635800Y68924123D01*
X63635800Y68924123D02*
X63702466Y68890790D01*
X63702466Y68890790D02*
X63735800Y68857457D01*
X63735800Y68857457D02*
X63769133Y68790790D01*
X63769133Y68790790D02*
X63769133Y68724123D01*
X63769133Y68724123D02*
X63735800Y68657457D01*
X63735800Y68657457D02*
X63702466Y68624123D01*
X63702466Y68624123D02*
X63635800Y68590790D01*
X63635800Y68590790D02*
X63502466Y68557457D01*
X63502466Y68557457D02*
X63335800Y68557457D01*
X63335800Y68557457D02*
X63202466Y68590790D01*
X63202466Y68590790D02*
X63135800Y68624123D01*
X63135800Y68624123D02*
X63102466Y68657457D01*
X63102466Y68657457D02*
X63069133Y68724123D01*
X63702466Y69657457D02*
X63735800Y69624124D01*
X63735800Y69624124D02*
X63769133Y69524124D01*
X63769133Y69524124D02*
X63769133Y69457457D01*
X63769133Y69457457D02*
X63735800Y69357457D01*
X63735800Y69357457D02*
X63669133Y69290790D01*
X63669133Y69290790D02*
X63602466Y69257457D01*
X63602466Y69257457D02*
X63469133Y69224124D01*
X63469133Y69224124D02*
X63369133Y69224124D01*
X63369133Y69224124D02*
X63235800Y69257457D01*
X63235800Y69257457D02*
X63169133Y69290790D01*
X63169133Y69290790D02*
X63102466Y69357457D01*
X63102466Y69357457D02*
X63069133Y69457457D01*
X63069133Y69457457D02*
X63069133Y69524124D01*
X63069133Y69524124D02*
X63102466Y69624124D01*
X63102466Y69624124D02*
X63135800Y69657457D01*
X63502466Y69957457D02*
X63502466Y70490790D01*
X63769133Y71190791D02*
X63769133Y70790791D01*
X63769133Y70990791D02*
X63069133Y70990791D01*
X63069133Y70990791D02*
X63169133Y70924124D01*
X63169133Y70924124D02*
X63235800Y70857457D01*
X63235800Y70857457D02*
X63269133Y70790791D01*
X63069133Y71624124D02*
X63069133Y71690791D01*
X63069133Y71690791D02*
X63102466Y71757458D01*
X63102466Y71757458D02*
X63135800Y71790791D01*
X63135800Y71790791D02*
X63202466Y71824124D01*
X63202466Y71824124D02*
X63335800Y71857458D01*
X63335800Y71857458D02*
X63502466Y71857458D01*
X63502466Y71857458D02*
X63635800Y71824124D01*
X63635800Y71824124D02*
X63702466Y71790791D01*
X63702466Y71790791D02*
X63735800Y71757458D01*
X63735800Y71757458D02*
X63769133Y71690791D01*
X63769133Y71690791D02*
X63769133Y71624124D01*
X63769133Y71624124D02*
X63735800Y71557458D01*
X63735800Y71557458D02*
X63702466Y71524124D01*
X63702466Y71524124D02*
X63635800Y71490791D01*
X63635800Y71490791D02*
X63502466Y71457458D01*
X63502466Y71457458D02*
X63335800Y71457458D01*
X63335800Y71457458D02*
X63202466Y71490791D01*
X63202466Y71490791D02*
X63135800Y71524124D01*
X63135800Y71524124D02*
X63102466Y71557458D01*
X63102466Y71557458D02*
X63069133Y71624124D01*
X63769133Y72157458D02*
X63069133Y72157458D01*
X63069133Y72157458D02*
X63069133Y72424125D01*
X63069133Y72424125D02*
X63102466Y72490791D01*
X63102466Y72490791D02*
X63135800Y72524125D01*
X63135800Y72524125D02*
X63202466Y72557458D01*
X63202466Y72557458D02*
X63302466Y72557458D01*
X63302466Y72557458D02*
X63369133Y72524125D01*
X63369133Y72524125D02*
X63402466Y72490791D01*
X63402466Y72490791D02*
X63435800Y72424125D01*
X63435800Y72424125D02*
X63435800Y72157458D01*
X63069133Y72857458D02*
X63635800Y72857458D01*
X63635800Y72857458D02*
X63702466Y72890791D01*
X63702466Y72890791D02*
X63735800Y72924125D01*
X63735800Y72924125D02*
X63769133Y72990791D01*
X63769133Y72990791D02*
X63769133Y73124125D01*
X63769133Y73124125D02*
X63735800Y73190791D01*
X63735800Y73190791D02*
X63702466Y73224125D01*
X63702466Y73224125D02*
X63635800Y73257458D01*
X63635800Y73257458D02*
X63069133Y73257458D01*
D12*
X3205438Y3029614D02*
X3138771Y3062947D01*
X3138771Y3062947D02*
X3038771Y3062947D01*
X3038771Y3062947D02*
X2938771Y3029614D01*
X2938771Y3029614D02*
X2872105Y2962947D01*
X2872105Y2962947D02*
X2838771Y2896280D01*
X2838771Y2896280D02*
X2805438Y2762947D01*
X2805438Y2762947D02*
X2805438Y2662947D01*
X2805438Y2662947D02*
X2838771Y2529614D01*
X2838771Y2529614D02*
X2872105Y2462947D01*
X2872105Y2462947D02*
X2938771Y2396280D01*
X2938771Y2396280D02*
X3038771Y2362947D01*
X3038771Y2362947D02*
X3105438Y2362947D01*
X3105438Y2362947D02*
X3205438Y2396280D01*
X3205438Y2396280D02*
X3238771Y2429614D01*
X3238771Y2429614D02*
X3238771Y2662947D01*
X3238771Y2662947D02*
X3105438Y2662947D01*
X3538771Y2362947D02*
X3538771Y3062947D01*
X3538771Y3062947D02*
X3938771Y2362947D01*
X3938771Y2362947D02*
X3938771Y3062947D01*
X4272104Y2362947D02*
X4272104Y3062947D01*
X4272104Y3062947D02*
X4438771Y3062947D01*
X4438771Y3062947D02*
X4538771Y3029614D01*
X4538771Y3029614D02*
X4605438Y2962947D01*
X4605438Y2962947D02*
X4638771Y2896280D01*
X4638771Y2896280D02*
X4672104Y2762947D01*
X4672104Y2762947D02*
X4672104Y2662947D01*
X4672104Y2662947D02*
X4638771Y2529614D01*
X4638771Y2529614D02*
X4605438Y2462947D01*
X4605438Y2462947D02*
X4538771Y2396280D01*
X4538771Y2396280D02*
X4438771Y2362947D01*
X4438771Y2362947D02*
X4272104Y2362947D01*
D13*
X5365739Y94826225D02*
X5365739Y95626225D01*
X5708595Y95550035D02*
X5746691Y95588130D01*
X5746691Y95588130D02*
X5822881Y95626225D01*
X5822881Y95626225D02*
X6013357Y95626225D01*
X6013357Y95626225D02*
X6089548Y95588130D01*
X6089548Y95588130D02*
X6127643Y95550035D01*
X6127643Y95550035D02*
X6165738Y95473844D01*
X6165738Y95473844D02*
X6165738Y95397654D01*
X6165738Y95397654D02*
X6127643Y95283368D01*
X6127643Y95283368D02*
X5670500Y94826225D01*
X5670500Y94826225D02*
X6165738Y94826225D01*
X6965739Y94902416D02*
X6927643Y94864320D01*
X6927643Y94864320D02*
X6813358Y94826225D01*
X6813358Y94826225D02*
X6737167Y94826225D01*
X6737167Y94826225D02*
X6622881Y94864320D01*
X6622881Y94864320D02*
X6546691Y94940511D01*
X6546691Y94940511D02*
X6508596Y95016701D01*
X6508596Y95016701D02*
X6470500Y95169082D01*
X6470500Y95169082D02*
X6470500Y95283368D01*
X6470500Y95283368D02*
X6508596Y95435749D01*
X6508596Y95435749D02*
X6546691Y95511940D01*
X6546691Y95511940D02*
X6622881Y95588130D01*
X6622881Y95588130D02*
X6737167Y95626225D01*
X6737167Y95626225D02*
X6813358Y95626225D01*
X6813358Y95626225D02*
X6927643Y95588130D01*
X6927643Y95588130D02*
X6965739Y95550035D01*
X1787643Y87294320D02*
X1901929Y87256225D01*
X1901929Y87256225D02*
X2092405Y87256225D01*
X2092405Y87256225D02*
X2168596Y87294320D01*
X2168596Y87294320D02*
X2206691Y87332416D01*
X2206691Y87332416D02*
X2244786Y87408606D01*
X2244786Y87408606D02*
X2244786Y87484797D01*
X2244786Y87484797D02*
X2206691Y87560987D01*
X2206691Y87560987D02*
X2168596Y87599082D01*
X2168596Y87599082D02*
X2092405Y87637178D01*
X2092405Y87637178D02*
X1940024Y87675273D01*
X1940024Y87675273D02*
X1863834Y87713368D01*
X1863834Y87713368D02*
X1825739Y87751463D01*
X1825739Y87751463D02*
X1787643Y87827654D01*
X1787643Y87827654D02*
X1787643Y87903844D01*
X1787643Y87903844D02*
X1825739Y87980035D01*
X1825739Y87980035D02*
X1863834Y88018130D01*
X1863834Y88018130D02*
X1940024Y88056225D01*
X1940024Y88056225D02*
X2130501Y88056225D01*
X2130501Y88056225D02*
X2244786Y88018130D01*
X2587644Y87256225D02*
X2587644Y88056225D01*
X2587644Y88056225D02*
X2778120Y88056225D01*
X2778120Y88056225D02*
X2892406Y88018130D01*
X2892406Y88018130D02*
X2968596Y87941940D01*
X2968596Y87941940D02*
X3006691Y87865749D01*
X3006691Y87865749D02*
X3044787Y87713368D01*
X3044787Y87713368D02*
X3044787Y87599082D01*
X3044787Y87599082D02*
X3006691Y87446701D01*
X3006691Y87446701D02*
X2968596Y87370511D01*
X2968596Y87370511D02*
X2892406Y87294320D01*
X2892406Y87294320D02*
X2778120Y87256225D01*
X2778120Y87256225D02*
X2587644Y87256225D01*
X3349548Y87484797D02*
X3730501Y87484797D01*
X3273358Y87256225D02*
X3540025Y88056225D01*
X3540025Y88056225D02*
X3806691Y87256225D01*
D15*
X17554378Y97048881D02*
X17679378Y98048881D01*
X17679378Y98048881D02*
X17923426Y97334596D01*
X17923426Y97334596D02*
X18346045Y98048881D01*
X18346045Y98048881D02*
X18221045Y97048881D01*
X18762712Y97572691D02*
X19096045Y97572691D01*
X19173426Y97048881D02*
X18697235Y97048881D01*
X18697235Y97048881D02*
X18822235Y98048881D01*
X18822235Y98048881D02*
X19298426Y98048881D01*
X19631759Y98048881D02*
X20298426Y98048881D01*
X20298426Y98048881D02*
X19506759Y97048881D01*
X19506759Y97048881D02*
X20173426Y97048881D01*
X20768664Y97620310D02*
X20679378Y97667929D01*
X20679378Y97667929D02*
X20637712Y97715548D01*
X20637712Y97715548D02*
X20601997Y97810786D01*
X20601997Y97810786D02*
X20607950Y97858405D01*
X20607950Y97858405D02*
X20667474Y97953643D01*
X20667474Y97953643D02*
X20721045Y98001262D01*
X20721045Y98001262D02*
X20822236Y98048881D01*
X20822236Y98048881D02*
X21012712Y98048881D01*
X21012712Y98048881D02*
X21101997Y98001262D01*
X21101997Y98001262D02*
X21143664Y97953643D01*
X21143664Y97953643D02*
X21179378Y97858405D01*
X21179378Y97858405D02*
X21173426Y97810786D01*
X21173426Y97810786D02*
X21113902Y97715548D01*
X21113902Y97715548D02*
X21060331Y97667929D01*
X21060331Y97667929D02*
X20959140Y97620310D01*
X20959140Y97620310D02*
X20768664Y97620310D01*
X20768664Y97620310D02*
X20667474Y97572691D01*
X20667474Y97572691D02*
X20613902Y97525072D01*
X20613902Y97525072D02*
X20554378Y97429834D01*
X20554378Y97429834D02*
X20530569Y97239358D01*
X20530569Y97239358D02*
X20566283Y97144120D01*
X20566283Y97144120D02*
X20607950Y97096500D01*
X20607950Y97096500D02*
X20697236Y97048881D01*
X20697236Y97048881D02*
X20887712Y97048881D01*
X20887712Y97048881D02*
X20988902Y97096500D01*
X20988902Y97096500D02*
X21042474Y97144120D01*
X21042474Y97144120D02*
X21101997Y97239358D01*
X21101997Y97239358D02*
X21125807Y97429834D01*
X21125807Y97429834D02*
X21090093Y97525072D01*
X21090093Y97525072D02*
X21048426Y97572691D01*
X21048426Y97572691D02*
X20959140Y97620310D01*
X22060331Y98048881D02*
X21869855Y98048881D01*
X21869855Y98048881D02*
X21768664Y98001262D01*
X21768664Y98001262D02*
X21715093Y97953643D01*
X21715093Y97953643D02*
X21601997Y97810786D01*
X21601997Y97810786D02*
X21530569Y97620310D01*
X21530569Y97620310D02*
X21482950Y97239358D01*
X21482950Y97239358D02*
X21518664Y97144120D01*
X21518664Y97144120D02*
X21560331Y97096500D01*
X21560331Y97096500D02*
X21649617Y97048881D01*
X21649617Y97048881D02*
X21840093Y97048881D01*
X21840093Y97048881D02*
X21941283Y97096500D01*
X21941283Y97096500D02*
X21994855Y97144120D01*
X21994855Y97144120D02*
X22054378Y97239358D01*
X22054378Y97239358D02*
X22084140Y97477453D01*
X22084140Y97477453D02*
X22048426Y97572691D01*
X22048426Y97572691D02*
X22006759Y97620310D01*
X22006759Y97620310D02*
X21917474Y97667929D01*
X21917474Y97667929D02*
X21726997Y97667929D01*
X21726997Y97667929D02*
X21625807Y97620310D01*
X21625807Y97620310D02*
X21572236Y97572691D01*
X21572236Y97572691D02*
X21512712Y97477453D01*
X22209140Y96953643D02*
X22971045Y96953643D01*
X23792474Y97048881D02*
X23518664Y97525072D01*
X23221045Y97048881D02*
X23346045Y98048881D01*
X23346045Y98048881D02*
X23726998Y98048881D01*
X23726998Y98048881D02*
X23816283Y98001262D01*
X23816283Y98001262D02*
X23857950Y97953643D01*
X23857950Y97953643D02*
X23893664Y97858405D01*
X23893664Y97858405D02*
X23875807Y97715548D01*
X23875807Y97715548D02*
X23816283Y97620310D01*
X23816283Y97620310D02*
X23762712Y97572691D01*
X23762712Y97572691D02*
X23661522Y97525072D01*
X23661522Y97525072D02*
X23280569Y97525072D01*
X24209141Y97334596D02*
X24685331Y97334596D01*
X24078188Y97048881D02*
X24536522Y98048881D01*
X24536522Y98048881D02*
X24744855Y97048881D01*
X25078188Y97048881D02*
X25203188Y98048881D01*
X25203188Y98048881D02*
X25447236Y97334596D01*
X25447236Y97334596D02*
X25869855Y98048881D01*
X25869855Y98048881D02*
X25744855Y97048881D01*
X27554379Y97048881D02*
X27280569Y97525072D01*
X26982950Y97048881D02*
X27107950Y98048881D01*
X27107950Y98048881D02*
X27488903Y98048881D01*
X27488903Y98048881D02*
X27578188Y98001262D01*
X27578188Y98001262D02*
X27619855Y97953643D01*
X27619855Y97953643D02*
X27655569Y97858405D01*
X27655569Y97858405D02*
X27637712Y97715548D01*
X27637712Y97715548D02*
X27578188Y97620310D01*
X27578188Y97620310D02*
X27524617Y97572691D01*
X27524617Y97572691D02*
X27423427Y97525072D01*
X27423427Y97525072D02*
X27042474Y97525072D01*
X28369855Y97096500D02*
X28268665Y97048881D01*
X28268665Y97048881D02*
X28078188Y97048881D01*
X28078188Y97048881D02*
X27988903Y97096500D01*
X27988903Y97096500D02*
X27953188Y97191739D01*
X27953188Y97191739D02*
X28000808Y97572691D01*
X28000808Y97572691D02*
X28060331Y97667929D01*
X28060331Y97667929D02*
X28161522Y97715548D01*
X28161522Y97715548D02*
X28351998Y97715548D01*
X28351998Y97715548D02*
X28441284Y97667929D01*
X28441284Y97667929D02*
X28476998Y97572691D01*
X28476998Y97572691D02*
X28465093Y97477453D01*
X28465093Y97477453D02*
X27976998Y97382215D01*
X28828189Y97715548D02*
X28982951Y97048881D01*
X28982951Y97048881D02*
X29304379Y97715548D01*
X30887713Y97048881D02*
X30316284Y97048881D01*
X30601999Y97048881D02*
X30726999Y98048881D01*
X30726999Y98048881D02*
X30613903Y97906024D01*
X30613903Y97906024D02*
X30506761Y97810786D01*
X30506761Y97810786D02*
X30405570Y97763167D01*
X31328189Y97144120D02*
X31369856Y97096500D01*
X31369856Y97096500D02*
X31316284Y97048881D01*
X31316284Y97048881D02*
X31274618Y97096500D01*
X31274618Y97096500D02*
X31328189Y97144120D01*
X31328189Y97144120D02*
X31316284Y97048881D01*
X32316284Y97048881D02*
X31744855Y97048881D01*
X32030570Y97048881D02*
X32155570Y98048881D01*
X32155570Y98048881D02*
X32042474Y97906024D01*
X32042474Y97906024D02*
X31935332Y97810786D01*
X31935332Y97810786D02*
X31834141Y97763167D01*
X33506760Y97048881D02*
X33631760Y98048881D01*
X33935332Y97048881D02*
X34000808Y97572691D01*
X34000808Y97572691D02*
X33965094Y97667929D01*
X33965094Y97667929D02*
X33875808Y97715548D01*
X33875808Y97715548D02*
X33732951Y97715548D01*
X33732951Y97715548D02*
X33631760Y97667929D01*
X33631760Y97667929D02*
X33578189Y97620310D01*
X34351999Y97715548D02*
X34732951Y97715548D01*
X34536522Y98048881D02*
X34429380Y97191739D01*
X34429380Y97191739D02*
X34465094Y97096500D01*
X34465094Y97096500D02*
X34554380Y97048881D01*
X34554380Y97048881D02*
X34649618Y97048881D01*
X34923428Y97715548D02*
X35304380Y97715548D01*
X35107951Y98048881D02*
X35000809Y97191739D01*
X35000809Y97191739D02*
X35036523Y97096500D01*
X35036523Y97096500D02*
X35125809Y97048881D01*
X35125809Y97048881D02*
X35221047Y97048881D01*
X35637714Y97715548D02*
X35512714Y96715548D01*
X35631761Y97667929D02*
X35732952Y97715548D01*
X35732952Y97715548D02*
X35923428Y97715548D01*
X35923428Y97715548D02*
X36012714Y97667929D01*
X36012714Y97667929D02*
X36054380Y97620310D01*
X36054380Y97620310D02*
X36090095Y97525072D01*
X36090095Y97525072D02*
X36054380Y97239358D01*
X36054380Y97239358D02*
X35994857Y97144120D01*
X35994857Y97144120D02*
X35941285Y97096500D01*
X35941285Y97096500D02*
X35840095Y97048881D01*
X35840095Y97048881D02*
X35649618Y97048881D01*
X35649618Y97048881D02*
X35560333Y97096500D01*
X36417476Y97096500D02*
X36506761Y97048881D01*
X36506761Y97048881D02*
X36697238Y97048881D01*
X36697238Y97048881D02*
X36798428Y97096500D01*
X36798428Y97096500D02*
X36857952Y97191739D01*
X36857952Y97191739D02*
X36863904Y97239358D01*
X36863904Y97239358D02*
X36828190Y97334596D01*
X36828190Y97334596D02*
X36738904Y97382215D01*
X36738904Y97382215D02*
X36596047Y97382215D01*
X36596047Y97382215D02*
X36506761Y97429834D01*
X36506761Y97429834D02*
X36471047Y97525072D01*
X36471047Y97525072D02*
X36477000Y97572691D01*
X36477000Y97572691D02*
X36536523Y97667929D01*
X36536523Y97667929D02*
X36637714Y97715548D01*
X36637714Y97715548D02*
X36780571Y97715548D01*
X36780571Y97715548D02*
X36869857Y97667929D01*
X37280571Y97144120D02*
X37322238Y97096500D01*
X37322238Y97096500D02*
X37268666Y97048881D01*
X37268666Y97048881D02*
X37227000Y97096500D01*
X37227000Y97096500D02*
X37280571Y97144120D01*
X37280571Y97144120D02*
X37268666Y97048881D01*
X37346047Y97667929D02*
X37387714Y97620310D01*
X37387714Y97620310D02*
X37334143Y97572691D01*
X37334143Y97572691D02*
X37292476Y97620310D01*
X37292476Y97620310D02*
X37346047Y97667929D01*
X37346047Y97667929D02*
X37334143Y97572691D01*
X38590094Y98096500D02*
X37572237Y96810786D01*
X39637713Y98096500D02*
X38619856Y96810786D01*
X39744856Y97048881D02*
X40351999Y97715548D01*
X39828190Y97715548D02*
X40268666Y97048881D01*
X40661523Y97144120D02*
X40703190Y97096500D01*
X40703190Y97096500D02*
X40649618Y97048881D01*
X40649618Y97048881D02*
X40607952Y97096500D01*
X40607952Y97096500D02*
X40661523Y97144120D01*
X40661523Y97144120D02*
X40649618Y97048881D01*
X41560332Y97096500D02*
X41459142Y97048881D01*
X41459142Y97048881D02*
X41268666Y97048881D01*
X41268666Y97048881D02*
X41179380Y97096500D01*
X41179380Y97096500D02*
X41137713Y97144120D01*
X41137713Y97144120D02*
X41101999Y97239358D01*
X41101999Y97239358D02*
X41137713Y97525072D01*
X41137713Y97525072D02*
X41197237Y97620310D01*
X41197237Y97620310D02*
X41250808Y97667929D01*
X41250808Y97667929D02*
X41351999Y97715548D01*
X41351999Y97715548D02*
X41542475Y97715548D01*
X41542475Y97715548D02*
X41631761Y97667929D01*
X42125809Y97048881D02*
X42036523Y97096500D01*
X42036523Y97096500D02*
X41994856Y97144120D01*
X41994856Y97144120D02*
X41959142Y97239358D01*
X41959142Y97239358D02*
X41994856Y97525072D01*
X41994856Y97525072D02*
X42054380Y97620310D01*
X42054380Y97620310D02*
X42107951Y97667929D01*
X42107951Y97667929D02*
X42209142Y97715548D01*
X42209142Y97715548D02*
X42351999Y97715548D01*
X42351999Y97715548D02*
X42441285Y97667929D01*
X42441285Y97667929D02*
X42482951Y97620310D01*
X42482951Y97620310D02*
X42518666Y97525072D01*
X42518666Y97525072D02*
X42482951Y97239358D01*
X42482951Y97239358D02*
X42423428Y97144120D01*
X42423428Y97144120D02*
X42369856Y97096500D01*
X42369856Y97096500D02*
X42268666Y97048881D01*
X42268666Y97048881D02*
X42125809Y97048881D01*
X42887713Y97048881D02*
X42971047Y97715548D01*
X42959142Y97620310D02*
X43012713Y97667929D01*
X43012713Y97667929D02*
X43113904Y97715548D01*
X43113904Y97715548D02*
X43256761Y97715548D01*
X43256761Y97715548D02*
X43346047Y97667929D01*
X43346047Y97667929D02*
X43381761Y97572691D01*
X43381761Y97572691D02*
X43316285Y97048881D01*
X43381761Y97572691D02*
X43441285Y97667929D01*
X43441285Y97667929D02*
X43542475Y97715548D01*
X43542475Y97715548D02*
X43685332Y97715548D01*
X43685332Y97715548D02*
X43774618Y97667929D01*
X43774618Y97667929D02*
X43810332Y97572691D01*
X43810332Y97572691D02*
X43744856Y97048881D01*
X45066284Y98096500D02*
X44048427Y96810786D01*
X45697237Y97048881D02*
X45762713Y97572691D01*
X45762713Y97572691D02*
X45726999Y97667929D01*
X45726999Y97667929D02*
X45637713Y97715548D01*
X45637713Y97715548D02*
X45447237Y97715548D01*
X45447237Y97715548D02*
X45346046Y97667929D01*
X45703189Y97096500D02*
X45601999Y97048881D01*
X45601999Y97048881D02*
X45363903Y97048881D01*
X45363903Y97048881D02*
X45274618Y97096500D01*
X45274618Y97096500D02*
X45238903Y97191739D01*
X45238903Y97191739D02*
X45250808Y97286977D01*
X45250808Y97286977D02*
X45310332Y97382215D01*
X45310332Y97382215D02*
X45411523Y97429834D01*
X45411523Y97429834D02*
X45649618Y97429834D01*
X45649618Y97429834D02*
X45750808Y97477453D01*
X46173427Y97048881D02*
X46298427Y98048881D01*
X46316285Y97429834D02*
X46554380Y97048881D01*
X46637713Y97715548D02*
X46209142Y97334596D01*
X46982951Y97048881D02*
X47066285Y97715548D01*
X47107951Y98048881D02*
X47054380Y98001262D01*
X47054380Y98001262D02*
X47096047Y97953643D01*
X47096047Y97953643D02*
X47149618Y98001262D01*
X47149618Y98001262D02*
X47107951Y98048881D01*
X47107951Y98048881D02*
X47096047Y97953643D01*
X47459141Y97048881D02*
X47584141Y98048881D01*
X47887713Y97048881D02*
X47953189Y97572691D01*
X47953189Y97572691D02*
X47917475Y97667929D01*
X47917475Y97667929D02*
X47828189Y97715548D01*
X47828189Y97715548D02*
X47685332Y97715548D01*
X47685332Y97715548D02*
X47584141Y97667929D01*
X47584141Y97667929D02*
X47530570Y97620310D01*
X48113903Y96953643D02*
X48875808Y96953643D01*
X49084142Y97096500D02*
X49173427Y97048881D01*
X49173427Y97048881D02*
X49363904Y97048881D01*
X49363904Y97048881D02*
X49465094Y97096500D01*
X49465094Y97096500D02*
X49524618Y97191739D01*
X49524618Y97191739D02*
X49530570Y97239358D01*
X49530570Y97239358D02*
X49494856Y97334596D01*
X49494856Y97334596D02*
X49405570Y97382215D01*
X49405570Y97382215D02*
X49262713Y97382215D01*
X49262713Y97382215D02*
X49173427Y97429834D01*
X49173427Y97429834D02*
X49137713Y97525072D01*
X49137713Y97525072D02*
X49143666Y97572691D01*
X49143666Y97572691D02*
X49203189Y97667929D01*
X49203189Y97667929D02*
X49304380Y97715548D01*
X49304380Y97715548D02*
X49447237Y97715548D01*
X49447237Y97715548D02*
X49536523Y97667929D01*
X50363904Y97048881D02*
X50429380Y97572691D01*
X50429380Y97572691D02*
X50393666Y97667929D01*
X50393666Y97667929D02*
X50304380Y97715548D01*
X50304380Y97715548D02*
X50113904Y97715548D01*
X50113904Y97715548D02*
X50012713Y97667929D01*
X50369856Y97096500D02*
X50268666Y97048881D01*
X50268666Y97048881D02*
X50030570Y97048881D01*
X50030570Y97048881D02*
X49941285Y97096500D01*
X49941285Y97096500D02*
X49905570Y97191739D01*
X49905570Y97191739D02*
X49917475Y97286977D01*
X49917475Y97286977D02*
X49976999Y97382215D01*
X49976999Y97382215D02*
X50078190Y97429834D01*
X50078190Y97429834D02*
X50316285Y97429834D01*
X50316285Y97429834D02*
X50417475Y97477453D01*
X50923428Y97715548D02*
X50840094Y97048881D01*
X50911523Y97620310D02*
X50965094Y97667929D01*
X50965094Y97667929D02*
X51066285Y97715548D01*
X51066285Y97715548D02*
X51209142Y97715548D01*
X51209142Y97715548D02*
X51298428Y97667929D01*
X51298428Y97667929D02*
X51334142Y97572691D01*
X51334142Y97572691D02*
X51268666Y97048881D01*
D13*
X2104786Y92978130D02*
X2028596Y93016225D01*
X2028596Y93016225D02*
X1914310Y93016225D01*
X1914310Y93016225D02*
X1800024Y92978130D01*
X1800024Y92978130D02*
X1723834Y92901940D01*
X1723834Y92901940D02*
X1685739Y92825749D01*
X1685739Y92825749D02*
X1647643Y92673368D01*
X1647643Y92673368D02*
X1647643Y92559082D01*
X1647643Y92559082D02*
X1685739Y92406701D01*
X1685739Y92406701D02*
X1723834Y92330511D01*
X1723834Y92330511D02*
X1800024Y92254320D01*
X1800024Y92254320D02*
X1914310Y92216225D01*
X1914310Y92216225D02*
X1990501Y92216225D01*
X1990501Y92216225D02*
X2104786Y92254320D01*
X2104786Y92254320D02*
X2142882Y92292416D01*
X2142882Y92292416D02*
X2142882Y92559082D01*
X2142882Y92559082D02*
X1990501Y92559082D01*
X2485739Y92216225D02*
X2485739Y93016225D01*
X2485739Y93016225D02*
X2942882Y92216225D01*
X2942882Y92216225D02*
X2942882Y93016225D01*
X3323834Y92216225D02*
X3323834Y93016225D01*
X3323834Y93016225D02*
X3514310Y93016225D01*
X3514310Y93016225D02*
X3628596Y92978130D01*
X3628596Y92978130D02*
X3704786Y92901940D01*
X3704786Y92901940D02*
X3742881Y92825749D01*
X3742881Y92825749D02*
X3780977Y92673368D01*
X3780977Y92673368D02*
X3780977Y92559082D01*
X3780977Y92559082D02*
X3742881Y92406701D01*
X3742881Y92406701D02*
X3704786Y92330511D01*
X3704786Y92330511D02*
X3628596Y92254320D01*
X3628596Y92254320D02*
X3514310Y92216225D01*
X3514310Y92216225D02*
X3323834Y92216225D01*
X1641453Y90456225D02*
X1908120Y89656225D01*
X1908120Y89656225D02*
X2174786Y90456225D01*
X2898596Y89732416D02*
X2860500Y89694320D01*
X2860500Y89694320D02*
X2746215Y89656225D01*
X2746215Y89656225D02*
X2670024Y89656225D01*
X2670024Y89656225D02*
X2555738Y89694320D01*
X2555738Y89694320D02*
X2479548Y89770511D01*
X2479548Y89770511D02*
X2441453Y89846701D01*
X2441453Y89846701D02*
X2403357Y89999082D01*
X2403357Y89999082D02*
X2403357Y90113368D01*
X2403357Y90113368D02*
X2441453Y90265749D01*
X2441453Y90265749D02*
X2479548Y90341940D01*
X2479548Y90341940D02*
X2555738Y90418130D01*
X2555738Y90418130D02*
X2670024Y90456225D01*
X2670024Y90456225D02*
X2746215Y90456225D01*
X2746215Y90456225D02*
X2860500Y90418130D01*
X2860500Y90418130D02*
X2898596Y90380035D01*
X3698596Y89732416D02*
X3660500Y89694320D01*
X3660500Y89694320D02*
X3546215Y89656225D01*
X3546215Y89656225D02*
X3470024Y89656225D01*
X3470024Y89656225D02*
X3355738Y89694320D01*
X3355738Y89694320D02*
X3279548Y89770511D01*
X3279548Y89770511D02*
X3241453Y89846701D01*
X3241453Y89846701D02*
X3203357Y89999082D01*
X3203357Y89999082D02*
X3203357Y90113368D01*
X3203357Y90113368D02*
X3241453Y90265749D01*
X3241453Y90265749D02*
X3279548Y90341940D01*
X3279548Y90341940D02*
X3355738Y90418130D01*
X3355738Y90418130D02*
X3470024Y90456225D01*
X3470024Y90456225D02*
X3546215Y90456225D01*
X3546215Y90456225D02*
X3660500Y90418130D01*
X3660500Y90418130D02*
X3698596Y90380035D01*
D12*
X5548771Y2729614D02*
X6082105Y2729614D01*
X5815438Y2462947D02*
X5815438Y2996280D01*
X6748772Y3162947D02*
X6415438Y3162947D01*
X6415438Y3162947D02*
X6382105Y2829614D01*
X6382105Y2829614D02*
X6415438Y2862947D01*
X6415438Y2862947D02*
X6482105Y2896280D01*
X6482105Y2896280D02*
X6648772Y2896280D01*
X6648772Y2896280D02*
X6715438Y2862947D01*
X6715438Y2862947D02*
X6748772Y2829614D01*
X6748772Y2829614D02*
X6782105Y2762947D01*
X6782105Y2762947D02*
X6782105Y2596280D01*
X6782105Y2596280D02*
X6748772Y2529614D01*
X6748772Y2529614D02*
X6715438Y2496280D01*
X6715438Y2496280D02*
X6648772Y2462947D01*
X6648772Y2462947D02*
X6482105Y2462947D01*
X6482105Y2462947D02*
X6415438Y2496280D01*
X6415438Y2496280D02*
X6382105Y2529614D01*
X6982105Y3162947D02*
X7215439Y2462947D01*
X7215439Y2462947D02*
X7448772Y3162947D01*
D10*
X25396666Y11085181D02*
X25396666Y10370896D01*
X25396666Y10370896D02*
X25349047Y10228039D01*
X25349047Y10228039D02*
X25253809Y10132800D01*
X25253809Y10132800D02*
X25110952Y10085181D01*
X25110952Y10085181D02*
X25015714Y10085181D01*
X26301428Y10751848D02*
X26301428Y10085181D01*
X26063333Y11132800D02*
X25825238Y10418515D01*
X25825238Y10418515D02*
X26444285Y10418515D01*
X30148095Y69495181D02*
X30148095Y68685658D01*
X30148095Y68685658D02*
X30195714Y68590420D01*
X30195714Y68590420D02*
X30243333Y68542800D01*
X30243333Y68542800D02*
X30338571Y68495181D01*
X30338571Y68495181D02*
X30529047Y68495181D01*
X30529047Y68495181D02*
X30624285Y68542800D01*
X30624285Y68542800D02*
X30671904Y68590420D01*
X30671904Y68590420D02*
X30719523Y68685658D01*
X30719523Y68685658D02*
X30719523Y69495181D01*
X31719523Y68495181D02*
X31148095Y68495181D01*
X31433809Y68495181D02*
X31433809Y69495181D01*
X31433809Y69495181D02*
X31338571Y69352324D01*
X31338571Y69352324D02*
X31243333Y69257086D01*
X31243333Y69257086D02*
X31148095Y69209467D01*
X9953333Y15655181D02*
X9620000Y16131372D01*
X9381905Y15655181D02*
X9381905Y16655181D01*
X9381905Y16655181D02*
X9762857Y16655181D01*
X9762857Y16655181D02*
X9858095Y16607562D01*
X9858095Y16607562D02*
X9905714Y16559943D01*
X9905714Y16559943D02*
X9953333Y16464705D01*
X9953333Y16464705D02*
X9953333Y16321848D01*
X9953333Y16321848D02*
X9905714Y16226610D01*
X9905714Y16226610D02*
X9858095Y16178991D01*
X9858095Y16178991D02*
X9762857Y16131372D01*
X9762857Y16131372D02*
X9381905Y16131372D01*
X10286667Y16655181D02*
X10905714Y16655181D01*
X10905714Y16655181D02*
X10572381Y16274229D01*
X10572381Y16274229D02*
X10715238Y16274229D01*
X10715238Y16274229D02*
X10810476Y16226610D01*
X10810476Y16226610D02*
X10858095Y16178991D01*
X10858095Y16178991D02*
X10905714Y16083753D01*
X10905714Y16083753D02*
X10905714Y15845658D01*
X10905714Y15845658D02*
X10858095Y15750420D01*
X10858095Y15750420D02*
X10810476Y15702800D01*
X10810476Y15702800D02*
X10715238Y15655181D01*
X10715238Y15655181D02*
X10429524Y15655181D01*
X10429524Y15655181D02*
X10334286Y15702800D01*
X10334286Y15702800D02*
X10286667Y15750420D01*
D12*
X8296666Y4853447D02*
X8296666Y4353447D01*
X8296666Y4353447D02*
X8263333Y4253447D01*
X8263333Y4253447D02*
X8196666Y4186780D01*
X8196666Y4186780D02*
X8096666Y4153447D01*
X8096666Y4153447D02*
X8030000Y4153447D01*
X8929999Y4853447D02*
X8796666Y4853447D01*
X8796666Y4853447D02*
X8729999Y4820114D01*
X8729999Y4820114D02*
X8696666Y4786780D01*
X8696666Y4786780D02*
X8629999Y4686780D01*
X8629999Y4686780D02*
X8596666Y4553447D01*
X8596666Y4553447D02*
X8596666Y4286780D01*
X8596666Y4286780D02*
X8629999Y4220114D01*
X8629999Y4220114D02*
X8663333Y4186780D01*
X8663333Y4186780D02*
X8729999Y4153447D01*
X8729999Y4153447D02*
X8863333Y4153447D01*
X8863333Y4153447D02*
X8929999Y4186780D01*
X8929999Y4186780D02*
X8963333Y4220114D01*
X8963333Y4220114D02*
X8996666Y4286780D01*
X8996666Y4286780D02*
X8996666Y4453447D01*
X8996666Y4453447D02*
X8963333Y4520114D01*
X8963333Y4520114D02*
X8929999Y4553447D01*
X8929999Y4553447D02*
X8863333Y4586780D01*
X8863333Y4586780D02*
X8729999Y4586780D01*
X8729999Y4586780D02*
X8663333Y4553447D01*
X8663333Y4553447D02*
X8629999Y4520114D01*
X8629999Y4520114D02*
X8596666Y4453447D01*
D10*
X47283333Y74735181D02*
X46950000Y75211372D01*
X46711905Y74735181D02*
X46711905Y75735181D01*
X46711905Y75735181D02*
X47092857Y75735181D01*
X47092857Y75735181D02*
X47188095Y75687562D01*
X47188095Y75687562D02*
X47235714Y75639943D01*
X47235714Y75639943D02*
X47283333Y75544705D01*
X47283333Y75544705D02*
X47283333Y75401848D01*
X47283333Y75401848D02*
X47235714Y75306610D01*
X47235714Y75306610D02*
X47188095Y75258991D01*
X47188095Y75258991D02*
X47092857Y75211372D01*
X47092857Y75211372D02*
X46711905Y75211372D01*
X48235714Y74735181D02*
X47664286Y74735181D01*
X47950000Y74735181D02*
X47950000Y75735181D01*
X47950000Y75735181D02*
X47854762Y75592324D01*
X47854762Y75592324D02*
X47759524Y75497086D01*
X47759524Y75497086D02*
X47664286Y75449467D01*
X21103333Y71380420D02*
X21055714Y71332800D01*
X21055714Y71332800D02*
X20912857Y71285181D01*
X20912857Y71285181D02*
X20817619Y71285181D01*
X20817619Y71285181D02*
X20674762Y71332800D01*
X20674762Y71332800D02*
X20579524Y71428039D01*
X20579524Y71428039D02*
X20531905Y71523277D01*
X20531905Y71523277D02*
X20484286Y71713753D01*
X20484286Y71713753D02*
X20484286Y71856610D01*
X20484286Y71856610D02*
X20531905Y72047086D01*
X20531905Y72047086D02*
X20579524Y72142324D01*
X20579524Y72142324D02*
X20674762Y72237562D01*
X20674762Y72237562D02*
X20817619Y72285181D01*
X20817619Y72285181D02*
X20912857Y72285181D01*
X20912857Y72285181D02*
X21055714Y72237562D01*
X21055714Y72237562D02*
X21103333Y72189943D01*
X21960476Y71951848D02*
X21960476Y71285181D01*
X21722381Y72332800D02*
X21484286Y71618515D01*
X21484286Y71618515D02*
X22103333Y71618515D01*
X1551905Y16425181D02*
X1551905Y17425181D01*
X1551905Y17425181D02*
X1790000Y17425181D01*
X1790000Y17425181D02*
X1932857Y17377562D01*
X1932857Y17377562D02*
X2028095Y17282324D01*
X2028095Y17282324D02*
X2075714Y17187086D01*
X2075714Y17187086D02*
X2123333Y16996610D01*
X2123333Y16996610D02*
X2123333Y16853753D01*
X2123333Y16853753D02*
X2075714Y16663277D01*
X2075714Y16663277D02*
X2028095Y16568039D01*
X2028095Y16568039D02*
X1932857Y16472800D01*
X1932857Y16472800D02*
X1790000Y16425181D01*
X1790000Y16425181D02*
X1551905Y16425181D01*
X3075714Y16425181D02*
X2504286Y16425181D01*
X2790000Y16425181D02*
X2790000Y17425181D01*
X2790000Y17425181D02*
X2694762Y17282324D01*
X2694762Y17282324D02*
X2599524Y17187086D01*
X2599524Y17187086D02*
X2504286Y17139467D01*
X48353333Y60865181D02*
X48020000Y61341372D01*
X47781905Y60865181D02*
X47781905Y61865181D01*
X47781905Y61865181D02*
X48162857Y61865181D01*
X48162857Y61865181D02*
X48258095Y61817562D01*
X48258095Y61817562D02*
X48305714Y61769943D01*
X48305714Y61769943D02*
X48353333Y61674705D01*
X48353333Y61674705D02*
X48353333Y61531848D01*
X48353333Y61531848D02*
X48305714Y61436610D01*
X48305714Y61436610D02*
X48258095Y61388991D01*
X48258095Y61388991D02*
X48162857Y61341372D01*
X48162857Y61341372D02*
X47781905Y61341372D01*
X49210476Y61531848D02*
X49210476Y60865181D01*
X48972381Y61912800D02*
X48734286Y61198515D01*
X48734286Y61198515D02*
X49353333Y61198515D01*
X61296905Y61705181D02*
X61296905Y62705181D01*
X61296905Y62705181D02*
X61535000Y62705181D01*
X61535000Y62705181D02*
X61677857Y62657562D01*
X61677857Y62657562D02*
X61773095Y62562324D01*
X61773095Y62562324D02*
X61820714Y62467086D01*
X61820714Y62467086D02*
X61868333Y62276610D01*
X61868333Y62276610D02*
X61868333Y62133753D01*
X61868333Y62133753D02*
X61820714Y61943277D01*
X61820714Y61943277D02*
X61773095Y61848039D01*
X61773095Y61848039D02*
X61677857Y61752800D01*
X61677857Y61752800D02*
X61535000Y61705181D01*
X61535000Y61705181D02*
X61296905Y61705181D01*
X62249286Y62609943D02*
X62296905Y62657562D01*
X62296905Y62657562D02*
X62392143Y62705181D01*
X62392143Y62705181D02*
X62630238Y62705181D01*
X62630238Y62705181D02*
X62725476Y62657562D01*
X62725476Y62657562D02*
X62773095Y62609943D01*
X62773095Y62609943D02*
X62820714Y62514705D01*
X62820714Y62514705D02*
X62820714Y62419467D01*
X62820714Y62419467D02*
X62773095Y62276610D01*
X62773095Y62276610D02*
X62201667Y61705181D01*
X62201667Y61705181D02*
X62820714Y61705181D01*
X14058095Y46715181D02*
X14058095Y45905658D01*
X14058095Y45905658D02*
X14105714Y45810420D01*
X14105714Y45810420D02*
X14153333Y45762800D01*
X14153333Y45762800D02*
X14248571Y45715181D01*
X14248571Y45715181D02*
X14439047Y45715181D01*
X14439047Y45715181D02*
X14534285Y45762800D01*
X14534285Y45762800D02*
X14581904Y45810420D01*
X14581904Y45810420D02*
X14629523Y45905658D01*
X14629523Y45905658D02*
X14629523Y46715181D01*
X15010476Y46715181D02*
X15629523Y46715181D01*
X15629523Y46715181D02*
X15296190Y46334229D01*
X15296190Y46334229D02*
X15439047Y46334229D01*
X15439047Y46334229D02*
X15534285Y46286610D01*
X15534285Y46286610D02*
X15581904Y46238991D01*
X15581904Y46238991D02*
X15629523Y46143753D01*
X15629523Y46143753D02*
X15629523Y45905658D01*
X15629523Y45905658D02*
X15581904Y45810420D01*
X15581904Y45810420D02*
X15534285Y45762800D01*
X15534285Y45762800D02*
X15439047Y45715181D01*
X15439047Y45715181D02*
X15153333Y45715181D01*
X15153333Y45715181D02*
X15058095Y45762800D01*
X15058095Y45762800D02*
X15010476Y45810420D01*
X11703333Y89420420D02*
X11655714Y89372800D01*
X11655714Y89372800D02*
X11512857Y89325181D01*
X11512857Y89325181D02*
X11417619Y89325181D01*
X11417619Y89325181D02*
X11274762Y89372800D01*
X11274762Y89372800D02*
X11179524Y89468039D01*
X11179524Y89468039D02*
X11131905Y89563277D01*
X11131905Y89563277D02*
X11084286Y89753753D01*
X11084286Y89753753D02*
X11084286Y89896610D01*
X11084286Y89896610D02*
X11131905Y90087086D01*
X11131905Y90087086D02*
X11179524Y90182324D01*
X11179524Y90182324D02*
X11274762Y90277562D01*
X11274762Y90277562D02*
X11417619Y90325181D01*
X11417619Y90325181D02*
X11512857Y90325181D01*
X11512857Y90325181D02*
X11655714Y90277562D01*
X11655714Y90277562D02*
X11703333Y90229943D01*
X12608095Y90325181D02*
X12131905Y90325181D01*
X12131905Y90325181D02*
X12084286Y89848991D01*
X12084286Y89848991D02*
X12131905Y89896610D01*
X12131905Y89896610D02*
X12227143Y89944229D01*
X12227143Y89944229D02*
X12465238Y89944229D01*
X12465238Y89944229D02*
X12560476Y89896610D01*
X12560476Y89896610D02*
X12608095Y89848991D01*
X12608095Y89848991D02*
X12655714Y89753753D01*
X12655714Y89753753D02*
X12655714Y89515658D01*
X12655714Y89515658D02*
X12608095Y89420420D01*
X12608095Y89420420D02*
X12560476Y89372800D01*
X12560476Y89372800D02*
X12465238Y89325181D01*
X12465238Y89325181D02*
X12227143Y89325181D01*
X12227143Y89325181D02*
X12131905Y89372800D01*
X12131905Y89372800D02*
X12084286Y89420420D01*
X21053333Y41350420D02*
X21005714Y41302800D01*
X21005714Y41302800D02*
X20862857Y41255181D01*
X20862857Y41255181D02*
X20767619Y41255181D01*
X20767619Y41255181D02*
X20624762Y41302800D01*
X20624762Y41302800D02*
X20529524Y41398039D01*
X20529524Y41398039D02*
X20481905Y41493277D01*
X20481905Y41493277D02*
X20434286Y41683753D01*
X20434286Y41683753D02*
X20434286Y41826610D01*
X20434286Y41826610D02*
X20481905Y42017086D01*
X20481905Y42017086D02*
X20529524Y42112324D01*
X20529524Y42112324D02*
X20624762Y42207562D01*
X20624762Y42207562D02*
X20767619Y42255181D01*
X20767619Y42255181D02*
X20862857Y42255181D01*
X20862857Y42255181D02*
X21005714Y42207562D01*
X21005714Y42207562D02*
X21053333Y42159943D01*
X21386667Y42255181D02*
X22005714Y42255181D01*
X22005714Y42255181D02*
X21672381Y41874229D01*
X21672381Y41874229D02*
X21815238Y41874229D01*
X21815238Y41874229D02*
X21910476Y41826610D01*
X21910476Y41826610D02*
X21958095Y41778991D01*
X21958095Y41778991D02*
X22005714Y41683753D01*
X22005714Y41683753D02*
X22005714Y41445658D01*
X22005714Y41445658D02*
X21958095Y41350420D01*
X21958095Y41350420D02*
X21910476Y41302800D01*
X21910476Y41302800D02*
X21815238Y41255181D01*
X21815238Y41255181D02*
X21529524Y41255181D01*
X21529524Y41255181D02*
X21434286Y41302800D01*
X21434286Y41302800D02*
X21386667Y41350420D01*
X58023333Y45340420D02*
X57975714Y45292800D01*
X57975714Y45292800D02*
X57832857Y45245181D01*
X57832857Y45245181D02*
X57737619Y45245181D01*
X57737619Y45245181D02*
X57594762Y45292800D01*
X57594762Y45292800D02*
X57499524Y45388039D01*
X57499524Y45388039D02*
X57451905Y45483277D01*
X57451905Y45483277D02*
X57404286Y45673753D01*
X57404286Y45673753D02*
X57404286Y45816610D01*
X57404286Y45816610D02*
X57451905Y46007086D01*
X57451905Y46007086D02*
X57499524Y46102324D01*
X57499524Y46102324D02*
X57594762Y46197562D01*
X57594762Y46197562D02*
X57737619Y46245181D01*
X57737619Y46245181D02*
X57832857Y46245181D01*
X57832857Y46245181D02*
X57975714Y46197562D01*
X57975714Y46197562D02*
X58023333Y46149943D01*
X58356667Y46245181D02*
X59023333Y46245181D01*
X59023333Y46245181D02*
X58594762Y45245181D01*
X54028095Y45755181D02*
X54028095Y44945658D01*
X54028095Y44945658D02*
X54075714Y44850420D01*
X54075714Y44850420D02*
X54123333Y44802800D01*
X54123333Y44802800D02*
X54218571Y44755181D01*
X54218571Y44755181D02*
X54409047Y44755181D01*
X54409047Y44755181D02*
X54504285Y44802800D01*
X54504285Y44802800D02*
X54551904Y44850420D01*
X54551904Y44850420D02*
X54599523Y44945658D01*
X54599523Y44945658D02*
X54599523Y45755181D01*
X54980476Y45755181D02*
X55647142Y45755181D01*
X55647142Y45755181D02*
X55218571Y44755181D01*
X35663333Y74960420D02*
X35615714Y74912800D01*
X35615714Y74912800D02*
X35472857Y74865181D01*
X35472857Y74865181D02*
X35377619Y74865181D01*
X35377619Y74865181D02*
X35234762Y74912800D01*
X35234762Y74912800D02*
X35139524Y75008039D01*
X35139524Y75008039D02*
X35091905Y75103277D01*
X35091905Y75103277D02*
X35044286Y75293753D01*
X35044286Y75293753D02*
X35044286Y75436610D01*
X35044286Y75436610D02*
X35091905Y75627086D01*
X35091905Y75627086D02*
X35139524Y75722324D01*
X35139524Y75722324D02*
X35234762Y75817562D01*
X35234762Y75817562D02*
X35377619Y75865181D01*
X35377619Y75865181D02*
X35472857Y75865181D01*
X35472857Y75865181D02*
X35615714Y75817562D01*
X35615714Y75817562D02*
X35663333Y75769943D01*
X36615714Y74865181D02*
X36044286Y74865181D01*
X36330000Y74865181D02*
X36330000Y75865181D01*
X36330000Y75865181D02*
X36234762Y75722324D01*
X36234762Y75722324D02*
X36139524Y75627086D01*
X36139524Y75627086D02*
X36044286Y75579467D01*
X14048095Y76875181D02*
X14048095Y76065658D01*
X14048095Y76065658D02*
X14095714Y75970420D01*
X14095714Y75970420D02*
X14143333Y75922800D01*
X14143333Y75922800D02*
X14238571Y75875181D01*
X14238571Y75875181D02*
X14429047Y75875181D01*
X14429047Y75875181D02*
X14524285Y75922800D01*
X14524285Y75922800D02*
X14571904Y75970420D01*
X14571904Y75970420D02*
X14619523Y76065658D01*
X14619523Y76065658D02*
X14619523Y76875181D01*
X15524285Y76541848D02*
X15524285Y75875181D01*
X15286190Y76922800D02*
X15048095Y76208515D01*
X15048095Y76208515D02*
X15667142Y76208515D01*
X11238095Y87665181D02*
X11238095Y86855658D01*
X11238095Y86855658D02*
X11285714Y86760420D01*
X11285714Y86760420D02*
X11333333Y86712800D01*
X11333333Y86712800D02*
X11428571Y86665181D01*
X11428571Y86665181D02*
X11619047Y86665181D01*
X11619047Y86665181D02*
X11714285Y86712800D01*
X11714285Y86712800D02*
X11761904Y86760420D01*
X11761904Y86760420D02*
X11809523Y86855658D01*
X11809523Y86855658D02*
X11809523Y87665181D01*
X12761904Y87665181D02*
X12285714Y87665181D01*
X12285714Y87665181D02*
X12238095Y87188991D01*
X12238095Y87188991D02*
X12285714Y87236610D01*
X12285714Y87236610D02*
X12380952Y87284229D01*
X12380952Y87284229D02*
X12619047Y87284229D01*
X12619047Y87284229D02*
X12714285Y87236610D01*
X12714285Y87236610D02*
X12761904Y87188991D01*
X12761904Y87188991D02*
X12809523Y87093753D01*
X12809523Y87093753D02*
X12809523Y86855658D01*
X12809523Y86855658D02*
X12761904Y86760420D01*
X12761904Y86760420D02*
X12714285Y86712800D01*
X12714285Y86712800D02*
X12619047Y86665181D01*
X12619047Y86665181D02*
X12380952Y86665181D01*
X12380952Y86665181D02*
X12285714Y86712800D01*
X12285714Y86712800D02*
X12238095Y86760420D01*
X39063333Y45740420D02*
X39015714Y45692800D01*
X39015714Y45692800D02*
X38872857Y45645181D01*
X38872857Y45645181D02*
X38777619Y45645181D01*
X38777619Y45645181D02*
X38634762Y45692800D01*
X38634762Y45692800D02*
X38539524Y45788039D01*
X38539524Y45788039D02*
X38491905Y45883277D01*
X38491905Y45883277D02*
X38444286Y46073753D01*
X38444286Y46073753D02*
X38444286Y46216610D01*
X38444286Y46216610D02*
X38491905Y46407086D01*
X38491905Y46407086D02*
X38539524Y46502324D01*
X38539524Y46502324D02*
X38634762Y46597562D01*
X38634762Y46597562D02*
X38777619Y46645181D01*
X38777619Y46645181D02*
X38872857Y46645181D01*
X38872857Y46645181D02*
X39015714Y46597562D01*
X39015714Y46597562D02*
X39063333Y46549943D01*
X39920476Y46645181D02*
X39730000Y46645181D01*
X39730000Y46645181D02*
X39634762Y46597562D01*
X39634762Y46597562D02*
X39587143Y46549943D01*
X39587143Y46549943D02*
X39491905Y46407086D01*
X39491905Y46407086D02*
X39444286Y46216610D01*
X39444286Y46216610D02*
X39444286Y45835658D01*
X39444286Y45835658D02*
X39491905Y45740420D01*
X39491905Y45740420D02*
X39539524Y45692800D01*
X39539524Y45692800D02*
X39634762Y45645181D01*
X39634762Y45645181D02*
X39825238Y45645181D01*
X39825238Y45645181D02*
X39920476Y45692800D01*
X39920476Y45692800D02*
X39968095Y45740420D01*
X39968095Y45740420D02*
X40015714Y45835658D01*
X40015714Y45835658D02*
X40015714Y46073753D01*
X40015714Y46073753D02*
X39968095Y46168991D01*
X39968095Y46168991D02*
X39920476Y46216610D01*
X39920476Y46216610D02*
X39825238Y46264229D01*
X39825238Y46264229D02*
X39634762Y46264229D01*
X39634762Y46264229D02*
X39539524Y46216610D01*
X39539524Y46216610D02*
X39491905Y46168991D01*
X39491905Y46168991D02*
X39444286Y46073753D01*
X54043333Y74775181D02*
X53710000Y75251372D01*
X53471905Y74775181D02*
X53471905Y75775181D01*
X53471905Y75775181D02*
X53852857Y75775181D01*
X53852857Y75775181D02*
X53948095Y75727562D01*
X53948095Y75727562D02*
X53995714Y75679943D01*
X53995714Y75679943D02*
X54043333Y75584705D01*
X54043333Y75584705D02*
X54043333Y75441848D01*
X54043333Y75441848D02*
X53995714Y75346610D01*
X53995714Y75346610D02*
X53948095Y75298991D01*
X53948095Y75298991D02*
X53852857Y75251372D01*
X53852857Y75251372D02*
X53471905Y75251372D01*
X54424286Y75679943D02*
X54471905Y75727562D01*
X54471905Y75727562D02*
X54567143Y75775181D01*
X54567143Y75775181D02*
X54805238Y75775181D01*
X54805238Y75775181D02*
X54900476Y75727562D01*
X54900476Y75727562D02*
X54948095Y75679943D01*
X54948095Y75679943D02*
X54995714Y75584705D01*
X54995714Y75584705D02*
X54995714Y75489467D01*
X54995714Y75489467D02*
X54948095Y75346610D01*
X54948095Y75346610D02*
X54376667Y74775181D01*
X54376667Y74775181D02*
X54995714Y74775181D01*
X30248095Y54645181D02*
X30248095Y53835658D01*
X30248095Y53835658D02*
X30295714Y53740420D01*
X30295714Y53740420D02*
X30343333Y53692800D01*
X30343333Y53692800D02*
X30438571Y53645181D01*
X30438571Y53645181D02*
X30629047Y53645181D01*
X30629047Y53645181D02*
X30724285Y53692800D01*
X30724285Y53692800D02*
X30771904Y53740420D01*
X30771904Y53740420D02*
X30819523Y53835658D01*
X30819523Y53835658D02*
X30819523Y54645181D01*
X31248095Y54549943D02*
X31295714Y54597562D01*
X31295714Y54597562D02*
X31390952Y54645181D01*
X31390952Y54645181D02*
X31629047Y54645181D01*
X31629047Y54645181D02*
X31724285Y54597562D01*
X31724285Y54597562D02*
X31771904Y54549943D01*
X31771904Y54549943D02*
X31819523Y54454705D01*
X31819523Y54454705D02*
X31819523Y54359467D01*
X31819523Y54359467D02*
X31771904Y54216610D01*
X31771904Y54216610D02*
X31200476Y53645181D01*
X31200476Y53645181D02*
X31819523Y53645181D01*
X5436666Y83255181D02*
X5436666Y82540896D01*
X5436666Y82540896D02*
X5389047Y82398039D01*
X5389047Y82398039D02*
X5293809Y82302800D01*
X5293809Y82302800D02*
X5150952Y82255181D01*
X5150952Y82255181D02*
X5055714Y82255181D01*
X6389047Y83255181D02*
X5912857Y83255181D01*
X5912857Y83255181D02*
X5865238Y82778991D01*
X5865238Y82778991D02*
X5912857Y82826610D01*
X5912857Y82826610D02*
X6008095Y82874229D01*
X6008095Y82874229D02*
X6246190Y82874229D01*
X6246190Y82874229D02*
X6341428Y82826610D01*
X6341428Y82826610D02*
X6389047Y82778991D01*
X6389047Y82778991D02*
X6436666Y82683753D01*
X6436666Y82683753D02*
X6436666Y82445658D01*
X6436666Y82445658D02*
X6389047Y82350420D01*
X6389047Y82350420D02*
X6341428Y82302800D01*
X6341428Y82302800D02*
X6246190Y82255181D01*
X6246190Y82255181D02*
X6008095Y82255181D01*
X6008095Y82255181D02*
X5912857Y82302800D01*
X5912857Y82302800D02*
X5865238Y82350420D01*
X35963333Y60180420D02*
X35915714Y60132800D01*
X35915714Y60132800D02*
X35772857Y60085181D01*
X35772857Y60085181D02*
X35677619Y60085181D01*
X35677619Y60085181D02*
X35534762Y60132800D01*
X35534762Y60132800D02*
X35439524Y60228039D01*
X35439524Y60228039D02*
X35391905Y60323277D01*
X35391905Y60323277D02*
X35344286Y60513753D01*
X35344286Y60513753D02*
X35344286Y60656610D01*
X35344286Y60656610D02*
X35391905Y60847086D01*
X35391905Y60847086D02*
X35439524Y60942324D01*
X35439524Y60942324D02*
X35534762Y61037562D01*
X35534762Y61037562D02*
X35677619Y61085181D01*
X35677619Y61085181D02*
X35772857Y61085181D01*
X35772857Y61085181D02*
X35915714Y61037562D01*
X35915714Y61037562D02*
X35963333Y60989943D01*
X36344286Y60989943D02*
X36391905Y61037562D01*
X36391905Y61037562D02*
X36487143Y61085181D01*
X36487143Y61085181D02*
X36725238Y61085181D01*
X36725238Y61085181D02*
X36820476Y61037562D01*
X36820476Y61037562D02*
X36868095Y60989943D01*
X36868095Y60989943D02*
X36915714Y60894705D01*
X36915714Y60894705D02*
X36915714Y60799467D01*
X36915714Y60799467D02*
X36868095Y60656610D01*
X36868095Y60656610D02*
X36296667Y60085181D01*
X36296667Y60085181D02*
X36915714Y60085181D01*
X34988095Y45805181D02*
X34988095Y44995658D01*
X34988095Y44995658D02*
X35035714Y44900420D01*
X35035714Y44900420D02*
X35083333Y44852800D01*
X35083333Y44852800D02*
X35178571Y44805181D01*
X35178571Y44805181D02*
X35369047Y44805181D01*
X35369047Y44805181D02*
X35464285Y44852800D01*
X35464285Y44852800D02*
X35511904Y44900420D01*
X35511904Y44900420D02*
X35559523Y44995658D01*
X35559523Y44995658D02*
X35559523Y45805181D01*
X36464285Y45805181D02*
X36273809Y45805181D01*
X36273809Y45805181D02*
X36178571Y45757562D01*
X36178571Y45757562D02*
X36130952Y45709943D01*
X36130952Y45709943D02*
X36035714Y45567086D01*
X36035714Y45567086D02*
X35988095Y45376610D01*
X35988095Y45376610D02*
X35988095Y44995658D01*
X35988095Y44995658D02*
X36035714Y44900420D01*
X36035714Y44900420D02*
X36083333Y44852800D01*
X36083333Y44852800D02*
X36178571Y44805181D01*
X36178571Y44805181D02*
X36369047Y44805181D01*
X36369047Y44805181D02*
X36464285Y44852800D01*
X36464285Y44852800D02*
X36511904Y44900420D01*
X36511904Y44900420D02*
X36559523Y44995658D01*
X36559523Y44995658D02*
X36559523Y45233753D01*
X36559523Y45233753D02*
X36511904Y45328991D01*
X36511904Y45328991D02*
X36464285Y45376610D01*
X36464285Y45376610D02*
X36369047Y45424229D01*
X36369047Y45424229D02*
X36178571Y45424229D01*
X36178571Y45424229D02*
X36083333Y45376610D01*
X36083333Y45376610D02*
X36035714Y45328991D01*
X36035714Y45328991D02*
X35988095Y45233753D01*
X24951666Y24120181D02*
X24951666Y23405896D01*
X24951666Y23405896D02*
X24904047Y23263039D01*
X24904047Y23263039D02*
X24808809Y23167800D01*
X24808809Y23167800D02*
X24665952Y23120181D01*
X24665952Y23120181D02*
X24570714Y23120181D01*
X25380238Y24024943D02*
X25427857Y24072562D01*
X25427857Y24072562D02*
X25523095Y24120181D01*
X25523095Y24120181D02*
X25761190Y24120181D01*
X25761190Y24120181D02*
X25856428Y24072562D01*
X25856428Y24072562D02*
X25904047Y24024943D01*
X25904047Y24024943D02*
X25951666Y23929705D01*
X25951666Y23929705D02*
X25951666Y23834467D01*
X25951666Y23834467D02*
X25904047Y23691610D01*
X25904047Y23691610D02*
X25332619Y23120181D01*
X25332619Y23120181D02*
X25951666Y23120181D01*
X4711666Y24050181D02*
X4711666Y23335896D01*
X4711666Y23335896D02*
X4664047Y23193039D01*
X4664047Y23193039D02*
X4568809Y23097800D01*
X4568809Y23097800D02*
X4425952Y23050181D01*
X4425952Y23050181D02*
X4330714Y23050181D01*
X5711666Y23050181D02*
X5140238Y23050181D01*
X5425952Y23050181D02*
X5425952Y24050181D01*
X5425952Y24050181D02*
X5330714Y23907324D01*
X5330714Y23907324D02*
X5235476Y23812086D01*
X5235476Y23812086D02*
X5140238Y23764467D01*
D16*
X24460000Y11960000D02*
X24460000Y10630000D01*
X23130000Y11960000D02*
X24460000Y11960000D01*
X21860000Y9300000D02*
X9100000Y9300000D01*
X21860000Y11960000D02*
X21860000Y9300000D01*
X21860000Y11960000D02*
X9100000Y11960000D01*
X9100000Y11960000D02*
X9100000Y9300000D01*
X32050000Y71545000D02*
X32050000Y69895000D01*
X32050000Y67895000D02*
X32050000Y66245000D01*
X32050000Y66245000D02*
X62650000Y66245000D01*
X62650000Y71545000D02*
X32050000Y71545000D01*
X62650000Y66245000D02*
X62650000Y71545000D01*
X32050000Y69895000D02*
G75*
G02*
X32050000Y67895000I0J-1000000D01*
G01*
X12760000Y17490000D02*
X12760000Y17160000D01*
X12760000Y14750000D02*
X12760000Y15080000D01*
X19300000Y17490000D02*
X12760000Y17490000D01*
X19300000Y17160000D02*
X19300000Y17490000D01*
X19300000Y15080000D02*
X19300000Y14750000D01*
X19300000Y14750000D02*
X12760000Y14750000D01*
D10*
X2990000Y4900000D02*
X3490000Y5400000D01*
X2990000Y4100000D02*
X2990000Y4900000D01*
X3490000Y5400000D02*
X7090000Y5400000D01*
X3490000Y3600000D02*
X2990000Y4100000D01*
X7090000Y5400000D02*
X7590000Y4900000D01*
X7090000Y3600000D02*
X3490000Y3600000D01*
X7590000Y4900000D02*
X7590000Y4100000D01*
X7590000Y4100000D02*
X7090000Y3600000D01*
D16*
X38380000Y76690000D02*
X44920000Y76690000D01*
X38380000Y76360000D02*
X38380000Y76690000D01*
X38380000Y74280000D02*
X38380000Y73950000D01*
X38380000Y73950000D02*
X44920000Y73950000D01*
X44920000Y76690000D02*
X44920000Y76360000D01*
X44920000Y73950000D02*
X44920000Y74280000D01*
X19860000Y77870000D02*
X22600000Y77870000D01*
X19860000Y72630000D02*
X19860000Y77870000D01*
X19860000Y72630000D02*
X22600000Y72630000D01*
X22600000Y72630000D02*
X22600000Y77870000D01*
X4150000Y17996000D02*
X4150000Y17840000D01*
X4150000Y15680000D02*
X4150000Y15524000D01*
X4150000Y17995516D02*
G75*
G02*
X7381397Y17840061I1560000J-1235516D01*
G01*
X4669039Y17840000D02*
G75*
G02*
X6750910Y17840049I1040961J-1080000D01*
G01*
X6750910Y15679951D02*
G75*
G02*
X4669039Y15680000I-1040910J1080049D01*
G01*
X7381397Y15679939D02*
G75*
G02*
X4150000Y15524484I-1671397J1080061D01*
G01*
X51190000Y62730000D02*
X57730000Y62730000D01*
X51190000Y62400000D02*
X51190000Y62730000D01*
X51190000Y60320000D02*
X51190000Y59990000D01*
X51190000Y59990000D02*
X57730000Y59990000D01*
X57730000Y62730000D02*
X57730000Y62400000D01*
X57730000Y59990000D02*
X57730000Y60320000D01*
X63600000Y60380000D02*
X63600000Y60536000D01*
X63600000Y58064000D02*
X63600000Y58220000D01*
X60367665Y60378608D02*
G75*
G02*
X63600000Y60535516I1672335J-1078608D01*
G01*
X60998870Y60379837D02*
G75*
G02*
X63080961Y60380000I1041130J-1079837D01*
G01*
X63080961Y58220000D02*
G75*
G02*
X60998870Y58220163I-1040961J1080000D01*
G01*
X63600000Y58064484D02*
G75*
G02*
X60367665Y58221392I-1560000J1235516D01*
G01*
X12160000Y45330000D02*
X12160000Y19810000D01*
X12160000Y19810000D02*
X17460000Y19810000D01*
X13810000Y45330000D02*
X12160000Y45330000D01*
X17460000Y45330000D02*
X15810000Y45330000D01*
X17460000Y19810000D02*
X17460000Y45330000D01*
X15810000Y45330000D02*
G75*
G02*
X13810000Y45330000I-1000000J0D01*
G01*
X10430000Y96140000D02*
X10430000Y90900000D01*
X13170000Y96140000D02*
X10430000Y96140000D01*
X13170000Y96140000D02*
X13170000Y90900000D01*
X13170000Y90900000D02*
X10430000Y90900000D01*
X19890000Y47860000D02*
X22630000Y47860000D01*
X19890000Y42620000D02*
X19890000Y47860000D01*
X19890000Y42620000D02*
X22630000Y42620000D01*
X22630000Y42620000D02*
X22630000Y47860000D01*
X59370000Y44720000D02*
X59370000Y47460000D01*
X64610000Y47460000D02*
X59370000Y47460000D01*
X64610000Y44720000D02*
X59370000Y44720000D01*
X64610000Y44720000D02*
X64610000Y47460000D01*
X49160000Y44330000D02*
X49160000Y3570000D01*
X49160000Y3570000D02*
X62080000Y3570000D01*
X54620000Y44330000D02*
X49160000Y44330000D01*
X62080000Y44330000D02*
X56620000Y44330000D01*
X62080000Y3570000D02*
X62080000Y44330000D01*
X56620000Y44330000D02*
G75*
G02*
X54620000Y44330000I-1000000J0D01*
G01*
X29510000Y73950000D02*
X29510000Y76690000D01*
X34750000Y76690000D02*
X29510000Y76690000D01*
X34750000Y73950000D02*
X29510000Y73950000D01*
X34750000Y73950000D02*
X34750000Y76690000D01*
X12160000Y75330000D02*
X12160000Y49810000D01*
X12160000Y49810000D02*
X17460000Y49810000D01*
X13810000Y75330000D02*
X12160000Y75330000D01*
X17460000Y75330000D02*
X15810000Y75330000D01*
X17460000Y49810000D02*
X17460000Y75330000D01*
X15810000Y75330000D02*
G75*
G02*
X13810000Y75330000I-1000000J0D01*
G01*
X13580650Y93615000D02*
X13580650Y88155000D01*
X13580650Y86155000D02*
X13580650Y80695000D01*
X13580650Y80695000D02*
X64500650Y80695000D01*
X64500650Y93615000D02*
X13580650Y93615000D01*
X64500650Y80695000D02*
X64500650Y93615000D01*
X13580650Y88155000D02*
G75*
G02*
X13580650Y86155000I0J-1000000D01*
G01*
X40360000Y44720000D02*
X40360000Y47460000D01*
X45600000Y47460000D02*
X40360000Y47460000D01*
X45600000Y44720000D02*
X40360000Y44720000D01*
X45600000Y44720000D02*
X45600000Y47460000D01*
X56780000Y76690000D02*
X63320000Y76690000D01*
X56780000Y76360000D02*
X56780000Y76690000D01*
X56780000Y74280000D02*
X56780000Y73950000D01*
X56780000Y73950000D02*
X63320000Y73950000D01*
X63320000Y76690000D02*
X63320000Y76360000D01*
X63320000Y73950000D02*
X63320000Y74280000D01*
X32235000Y56720000D02*
X32235000Y55070000D01*
X32235000Y53070000D02*
X32235000Y51420000D01*
X32235000Y51420000D02*
X57755000Y51420000D01*
X57755000Y56720000D02*
X32235000Y56720000D01*
X57755000Y51420000D02*
X57755000Y56720000D01*
X32235000Y55070000D02*
G75*
G02*
X32235000Y53070000I0J-1000000D01*
G01*
X4440000Y86310000D02*
X4440000Y93990000D01*
X7100000Y93990000D02*
X4440000Y93990000D01*
X7100000Y86310000D02*
X4440000Y86310000D01*
X7100000Y86310000D02*
X7100000Y93990000D01*
X7100000Y85040000D02*
X7100000Y83710000D01*
X7100000Y83710000D02*
X5770000Y83710000D01*
X29705000Y59170000D02*
X29705000Y61910000D01*
X34945000Y61910000D02*
X29705000Y61910000D01*
X34945000Y59170000D02*
X29705000Y59170000D01*
X34945000Y59170000D02*
X34945000Y61910000D01*
X30160000Y44330000D02*
X30160000Y3570000D01*
X30160000Y3570000D02*
X43080000Y3570000D01*
X35620000Y44330000D02*
X30160000Y44330000D01*
X43080000Y44330000D02*
X37620000Y44330000D01*
X43080000Y3570000D02*
X43080000Y44330000D01*
X37620000Y44330000D02*
G75*
G02*
X35620000Y44330000I-1000000J0D01*
G01*
M02*
