M48
; DRILL file {KiCad 9.0.3} date 2025-07-12T16:14:11+0900
; FORMAT={-:-/ absolute / metric / decimal}
; #@! TF.CreationDate,2025-07-12T16:14:11+09:00
; #@! TF.GenerationSoftware,Kicad,Pcbnew,9.0.3
; #@! TF.FileFunction,MixedPlating,1,2
FMAT,2
METRIC
; #@! TA.AperFunction,Plated,PTH,ViaDrill
T1C0.300
; #@! TA.AperFunction,Plated,PTH,ComponentDrill
T2C0.800
; #@! TA.AperFunction,Plated,PTH,ComponentDrill
T3C0.900
; #@! TA.AperFunction,Plated,PTH,ComponentDrill
T4C1.000
%
G90
G05
T1
X1.14Y70.83
X2.36Y82.39
X2.95Y97.03
X4.44Y8.95
X5.0Y80.73
X5.8Y21.31
X6.47Y79.49
X6.785Y64.515
X7.013Y26.834
X7.09Y76.891
X7.09Y72.32
X7.69Y78.365
X7.76Y71.16
X7.77Y26.22
X8.74Y94.77
X8.74Y90.12
X8.74Y76.52
X8.74Y48.6
X8.74Y13.33
X9.76Y25.67
X9.97Y86.32
X9.97Y75.46
X11.0Y48.2
X11.8Y79.54
X12.39Y46.06
X12.62Y42.64
X12.64Y67.78
X12.94Y38.92
X12.94Y20.64
X12.98Y13.33
X12.98Y4.5
X13.07Y67.11
X13.07Y58.76
X13.19Y44.65
X13.53Y36.37
X13.56Y21.08
X13.74Y72.8
X14.07Y59.88
X14.08Y38.34
X14.08Y28.76
X14.15Y65.32
X14.4Y84.42
X14.427Y70.37
X14.58Y18.06
X14.66Y41.46
X14.66Y34.91
X14.69Y42.64
X14.85Y33.67
X14.92Y26.03
X15.15Y22.62
X15.2Y30.94
X15.24Y65.08
X15.24Y35.6
X15.41Y90.46
X15.45Y74.07
X15.51Y28.57
X15.52Y14.29
X16.04Y81.66
X16.04Y54.71
X16.16Y26.22
X16.18Y34.04
X16.59Y68.92
X16.665Y7.03
X16.73Y38.92
X16.839Y22.524
X16.96Y66.38
X16.98Y51.14
X16.98Y40.99
X17.329Y7.97
X17.43Y1.84
X17.45Y86.32
X17.87Y45.9
X18.62Y76.52
X19.84Y13.33
X20.25Y35.863
X20.25Y31.3
X20.32Y62.7
X20.32Y50.19
X20.9Y68.9
X21.84Y48.58
X22.05Y56.22
X22.24Y36.37
X22.25Y22.57
X22.25Y13.59
X22.47Y91.18
X22.48Y32.64
X22.57Y25.02
X22.596Y29.82
X22.596Y26.84
X22.65Y30.78
X22.81Y60.559
X22.94Y37.59
X23.451Y76.91
X23.53Y62.56
X23.79Y88.07
X24.32Y6.43
X24.349Y14.969
X24.45Y77.66
X25.07Y91.13
X25.23Y19.23
X25.24Y18.06
X25.86Y14.969
X25.86Y11.71
X26.2Y85.46
X26.28Y19.77
X26.701Y11.93
X27.37Y9.54
X27.39Y23.39
X27.499Y64.279
X27.527Y61.291
X27.53Y68.92
X27.61Y88.99
X27.83Y77.2
X27.87Y47.11
X27.953Y55.391
X28.54Y73.88
X28.54Y72.71
X28.54Y57.87
X28.77Y52.898
X28.89Y93.07
X29.391Y49.74
X30.07Y53.14
X30.15Y88.05
X30.73Y25.21
X31.06Y57.88
X31.29Y18.66
X31.53Y17.06
X31.72Y43.78
X31.75Y9.42
X32.69Y96.54
X32.69Y77.51
X32.95Y85.54
X33.05Y47.11
X33.87Y43.0
X33.87Y1.53
X34.56Y66.79
X34.6Y53.68
X34.8Y62.88
X34.92Y55.541
X35.02Y7.44
X35.23Y89.83
X35.51Y31.405
X35.89Y68.37
X35.9Y17.31
X35.92Y77.32
X36.14Y47.04
X36.74Y56.09
X37.01Y10.159
X37.04Y6.34
X37.05Y5.32
X37.22Y51.93
X37.32Y91.81
X37.82Y63.05
X37.839Y15.06
X38.46Y61.36
X38.59Y12.52
X39.05Y9.48
X39.14Y85.14
X39.28Y68.62
X39.3Y62.14
X39.71Y12.52
X40.51Y55.541
X40.53Y9.98
X41.0Y69.94
X41.14Y48.22
X41.19Y63.6
X41.58Y67.14
X41.97Y17.19
X42.531Y28.492
X42.54Y24.531
X42.82Y54.78
X42.84Y78.06
X42.85Y90.57
X43.73Y47.95
X44.15Y85.78
X44.94Y68.84
X45.01Y69.95
X45.01Y1.95
X45.39Y92.45
X45.39Y77.66
X46.08Y69.99
X46.08Y63.05
X46.27Y54.83
X46.27Y53.14
X46.36Y35.38
X46.43Y93.06
X46.97Y47.95
X47.175Y69.28
X48.34Y68.74
X48.62Y70.54
X48.8Y55.541
X48.81Y53.68
X48.91Y86.09
X49.62Y51.93
X50.23Y77.66
X50.31Y6.608
X50.7Y25.23
X51.03Y54.83
X51.16Y68.74
X51.16Y67.8
X51.26Y89.83
X51.345Y5.98
X51.81Y90.57
X51.93Y56.22
X52.505Y14.365
X52.55Y63.38
X52.89Y7.27
X53.01Y91.81
X53.7Y69.28
X53.7Y59.48
X53.89Y20.15
X54.46Y91.13
X54.93Y22.68
X55.52Y48.84
X55.541Y81.66
X55.55Y97.54
X56.42Y53.13
X56.47Y46.07
X56.47Y43.0
X56.58Y88.99
X57.25Y53.68
X57.57Y12.23
X57.81Y17.63
X57.81Y14.85
X58.16Y44.76
X58.2Y9.93
X58.44Y6.2
X58.76Y37.96
X58.84Y33.99
X58.84Y25.49
X59.0Y40.81
X59.0Y27.87
X59.08Y30.41
X59.23Y81.11
X59.36Y87.49
X59.39Y21.76
X60.15Y50.43
X60.62Y82.39
X61.0Y92.45
X61.85Y70.54
X63.29Y51.58
X63.59Y86.64
X64.2Y69.99
X64.55Y48.97
X65.34Y34.07
T2
X4.02Y4.5
X6.56Y4.5
X11.0Y74.0
X11.0Y71.46
X11.0Y68.92
X11.0Y66.38
X11.0Y63.84
X11.0Y61.3
X11.0Y58.76
X11.0Y56.22
X11.0Y53.68
X11.0Y51.14
X11.0Y44.0
X11.0Y41.46
X11.0Y38.92
X11.0Y36.38
X11.0Y33.84
X11.0Y31.3
X11.0Y28.76
X11.0Y26.22
X11.0Y23.68
X11.0Y21.14
X11.8Y94.77
X11.8Y92.27
X12.22Y16.12
X14.911Y94.775
X14.911Y79.535
X17.451Y94.775
X17.451Y79.535
X18.62Y74.0
X18.62Y71.46
X18.62Y68.92
X18.62Y66.38
X18.62Y63.84
X18.62Y61.3
X18.62Y58.76
X18.62Y56.22
X18.62Y53.68
X18.62Y51.14
X18.62Y44.0
X18.62Y41.46
X18.62Y38.92
X18.62Y36.38
X18.62Y33.84
X18.62Y31.3
X18.62Y28.76
X18.62Y26.22
X18.62Y23.68
X18.62Y21.14
X19.84Y16.12
X19.991Y94.775
X19.991Y79.535
X21.23Y76.5
X21.23Y74.0
X21.26Y46.49
X21.26Y43.99
X22.531Y94.775
X22.531Y79.535
X25.071Y94.775
X25.071Y79.535
X27.611Y94.775
X27.611Y79.535
X29.0Y43.0
X29.0Y40.46
X29.0Y37.92
X29.0Y35.38
X29.0Y32.84
X29.0Y30.3
X29.0Y27.76
X29.0Y25.22
X29.0Y22.68
X29.0Y20.14
X29.0Y17.6
X29.0Y15.06
X29.0Y12.52
X29.0Y9.98
X29.0Y7.44
X29.0Y4.9
X30.151Y94.775
X30.151Y79.535
X30.88Y75.32
X31.075Y60.54
X32.691Y94.775
X32.691Y79.535
X33.38Y75.32
X33.38Y72.705
X33.38Y65.085
X33.565Y57.88
X33.565Y50.26
X33.575Y60.54
X35.231Y94.775
X35.231Y79.535
X35.92Y72.705
X35.92Y65.085
X36.105Y57.88
X36.105Y50.26
X37.771Y94.775
X37.771Y79.535
X37.84Y75.32
X38.46Y72.705
X38.46Y65.085
X38.645Y57.88
X38.645Y50.26
X40.311Y94.775
X40.311Y79.535
X41.0Y72.705
X41.0Y65.085
X41.185Y57.88
X41.185Y50.26
X41.73Y46.09
X42.851Y94.775
X42.851Y79.535
X43.54Y72.705
X43.54Y65.085
X43.725Y57.88
X43.725Y50.26
X44.23Y46.09
X44.24Y43.0
X44.24Y40.46
X44.24Y37.92
X44.24Y35.38
X44.24Y32.84
X44.24Y30.3
X44.24Y27.76
X44.24Y25.22
X44.24Y22.68
X44.24Y20.14
X44.24Y17.6
X44.24Y15.06
X44.24Y12.52
X44.24Y9.98
X44.24Y7.44
X44.24Y4.9
X45.391Y94.775
X45.391Y79.535
X45.46Y75.32
X46.08Y72.705
X46.08Y65.085
X46.265Y57.88
X46.265Y50.26
X47.931Y94.775
X47.931Y79.535
X48.0Y43.0
X48.0Y40.46
X48.0Y37.92
X48.0Y35.38
X48.0Y32.84
X48.0Y30.3
X48.0Y27.76
X48.0Y25.22
X48.0Y22.68
X48.0Y20.14
X48.0Y17.6
X48.0Y15.06
X48.0Y12.52
X48.0Y9.98
X48.0Y7.44
X48.0Y4.9
X48.62Y72.705
X48.62Y65.085
X48.805Y57.88
X48.805Y50.26
X50.471Y94.775
X50.471Y79.535
X50.65Y61.36
X51.16Y72.705
X51.16Y65.085
X51.345Y57.88
X51.345Y50.26
X53.011Y94.775
X53.011Y79.535
X53.7Y72.705
X53.7Y65.085
X53.885Y57.88
X53.885Y50.26
X55.551Y94.775
X55.551Y79.535
X56.24Y75.32
X56.24Y72.705
X56.24Y65.085
X56.425Y57.88
X56.425Y50.26
X58.091Y94.775
X58.091Y79.535
X58.27Y61.36
X58.78Y72.705
X58.78Y65.085
X60.631Y94.775
X60.631Y79.535
X60.74Y46.09
X61.32Y72.705
X61.32Y65.085
X63.171Y94.775
X63.171Y79.535
X63.24Y46.09
X63.24Y43.0
X63.24Y40.46
X63.24Y37.92
X63.24Y35.38
X63.24Y32.84
X63.24Y30.3
X63.24Y27.76
X63.24Y25.22
X63.24Y22.68
X63.24Y20.14
X63.24Y17.6
X63.24Y15.06
X63.24Y12.52
X63.24Y9.98
X63.24Y7.44
X63.24Y4.9
X63.86Y75.32
T3
X4.44Y16.76
X6.98Y16.76
X60.77Y59.3
X63.31Y59.3
T4
X5.0Y74.0
X5.0Y71.46
X5.0Y68.92
X5.0Y66.38
X5.0Y63.84
X5.0Y61.3
X5.0Y58.76
X5.0Y56.22
X5.0Y53.68
X5.0Y51.14
X5.0Y48.6
X5.0Y46.06
X5.0Y43.52
X5.0Y40.98
X5.0Y38.44
X5.0Y35.9
X5.0Y33.36
X5.0Y30.82
X5.0Y28.28
X5.0Y25.74
X5.77Y92.66
X5.77Y90.12
X5.77Y87.58
X5.77Y85.04
X10.43Y10.63
X12.97Y10.63
X15.51Y10.63
X18.05Y10.63
X20.59Y10.63
X23.13Y10.63
X25.32Y74.0
X25.32Y71.46
X25.32Y68.92
X25.32Y66.38
X25.32Y63.84
X25.32Y61.3
X25.32Y58.76
X25.32Y56.22
X25.32Y53.68
X25.32Y51.14
X25.32Y48.6
X25.32Y46.06
X25.32Y43.52
X25.32Y40.98
X25.32Y38.44
X25.32Y35.9
X25.32Y33.36
X25.32Y30.82
X25.32Y28.28
X25.32Y25.74
M30
